<?xml version="1.0" standalone="no"?>
<!DOCTYPE svg PUBLIC "-//W3C//DTD SVG 1.1//EN" "http://www.w3.org/Graphics/SVG/1.1/DTD/svg11.dtd" >
<svg xmlns="http://www.w3.org/2000/svg" xmlns:xlink="http://www.w3.org/1999/xlink" version="1.1">
<metadata>
Created by FontForge 20170731 at Wed Jun  5 19:37:45 2002
 By ,,,
Copyright (c) 1988, 1990, 1994, 2002 Adobe Systems Incorporated.  All Rights Reserved. (c) 1981, 2002 Heidelberger Druckmaschinen AG. All rights reserved.
</metadata>
<defs>
<font id="FrutigerLTStd-BoldItalic" horiz-adv-x="556" >
  <font-face 
    font-family="Frutiger LT Std 45 Light"
    font-weight="700"
    font-style="italic"
    font-stretch="normal"
    units-per-em="1000"
    panose-1="2 11 7 3 3 5 4 9 2 4"
    ascent="750"
    descent="-250"
    x-height="515"
    cap-height="698"
    bbox="-168 -250 1087 935"
    underline-thickness="50"
    underline-position="-200"
    slope="-12"
    unicode-range="U+0020-FB02"
  />
<missing-glyph horiz-adv-x="596" 
d="M96 0v700h500v-700h-500zM346 395l170 255h-340zM376 350l170 -255v510zM176 50h340l-170 255zM146 605v-510l170 255z" />
    <glyph glyph-name="fi" unicode="fi" horiz-adv-x="667" 
d="M69 0l88 417h-104l21 98h104q9 44 19 76.5t27.5 66.5t41 55.5t59 35t80.5 13.5q42 0 83 -13l-31 -100q-18 9 -41 9q-25 0 -43.5 -12.5t-29.5 -35.5t-17 -41t-12 -45q-1 -6 -2 -9h120l-21 -98h-120l-88 -417h-134zM541 609l28 128h134l-28 -128h-134zM410 0l110 515h134
l-110 -515h-134z" />
    <glyph glyph-name="fl" unicode="fl" horiz-adv-x="667" 
d="M410 0l159 750h134l-159 -750h-134zM69 0l88 417h-104l21 98h104q9 44 19 76.5t27.5 66.5t41 55.5t59 35t80.5 13.5q42 0 83 -13l-31 -100q-18 9 -41 9q-25 0 -43.5 -12.5t-29.5 -35.5t-17 -41t-12 -45q-1 -6 -2 -9h120l-21 -98h-120l-88 -417h-134z" />
    <glyph glyph-name=".notdef" horiz-adv-x="596" 
d="M96 0v700h500v-700h-500zM346 395l170 255h-340zM376 350l170 -255v510zM176 50h340l-170 255zM146 605v-510l170 255z" />
    <glyph glyph-name=".null" horiz-adv-x="0" 
 />
    <glyph glyph-name="nonmarkingreturn" horiz-adv-x="333" 
 />
    <glyph glyph-name="space" unicode=" " horiz-adv-x="278" 
 />
    <glyph glyph-name="exclam" unicode="!" horiz-adv-x="389" 
d="M133 205l80 493h157l-126 -493h-111zM106 140h140l-29 -140h-140z" />
    <glyph glyph-name="quotedbl" unicode="&#x22;" horiz-adv-x="500" 
d="M329 448v250h122v-250h-122zM146 448v250h122v-250h-122z" />
    <glyph glyph-name="numbersign" unicode="#" 
d="M524 285l-11 -80h-92l-28 -205h-89l28 205h-104l-28 -205h-88l28 205h-92l11 80h92l18 128h-92l11 80h92l28 205h89l-29 -205h103l28 205h89l-29 -205h92l-11 -80h-90l-18 -128h92zM359 413h-101l-17 -128h101z" />
    <glyph glyph-name="dollar" unicode="$" 
d="M565 677l-35 -114q-80 38 -152 37l-38 -182q38 -18 62.5 -32.5t53 -38.5t42.5 -54.5t14 -68.5q0 -112 -72.5 -174t-186.5 -62l-18 -87h-52l18 87q-53 0 -106.5 12.5t-85.5 27.5l36 122q89 -52 178 -52l43 208q-38 18 -62.5 32.5t-51.5 38t-40.5 54.5t-13.5 69
q0 101 73.5 155.5t178.5 54.5l17 84h50l-17 -84q36 0 87.5 -10.5t77.5 -22.5zM294 440l34 160q-37 -2 -63.5 -23.5t-26.5 -58.5q0 -49 56 -78zM314 284l-39 -186q97 21 97 105q0 49 -58 81z" />
    <glyph glyph-name="percent" unicode="%" horiz-adv-x="1000" 
d="M712 -12q-65 0 -102.5 34.5t-37.5 104.5q0 94 49.5 161.5t139.5 67.5q67 0 109.5 -35t42.5 -101q0 -94 -53 -163t-148 -69zM721 68q26 0 44.5 16t27.5 42.5t12.5 51t3.5 49.5q0 49 -52 49q-23 0 -40 -17t-25.5 -44t-12 -51.5t-3.5 -47.5q0 -48 45 -48zM277 422
q26 0 44.5 16.5t27.5 43t12.5 51.5t3.5 50q0 47 -52 47q-23 0 -40 -17t-25.5 -43t-12 -50.5t-3.5 -47.5q0 -50 45 -50zM268 342q-64 0 -102 35.5t-38 105.5q0 94 49 160.5t140 66.5q67 0 109.5 -34t42.5 -100q0 -94 -53 -164t-148 -70zM210 -22l542 742h85l-542 -742h-85z
" />
    <glyph glyph-name="ampersand" unicode="&#x26;" horiz-adv-x="722" 
d="M519 0l-25 40q-33 -23 -86.5 -37.5t-103.5 -14.5q-102 0 -172.5 49.5t-70.5 148.5q0 82 54 136.5t138 80.5q-17 24 -25.5 38t-16 38.5t-7.5 53.5q0 85 61.5 131t147.5 46q72 0 132.5 -41.5t60.5 -117.5t-49 -120t-133 -75l101 -145q58 86 61 168h122q-20 -159 -120 -261
l81 -118h-150zM435 127l-124 188q-54 -21 -85 -47.5t-31 -74.5q0 -52 34 -76.5t88 -24.5q71 0 118 35zM490 551q0 32 -20 46.5t-50 14.5q-39 0 -63.5 -22t-24.5 -61q0 -37 37 -88q121 33 121 110z" />
    <glyph glyph-name="quotesingle" unicode="'" horiz-adv-x="278" 
d="M134 448v250h122v-250h-122z" />
    <glyph glyph-name="parenleft" unicode="(" horiz-adv-x="333" 
d="M287 756h142q-63 -76 -101 -129.5t-71 -120t-47.5 -139t-14.5 -161.5q0 -173 53 -346h-114q-29 92 -40.5 132.5t-26 116t-14.5 137.5q0 64 12.5 123t30 103.5t52 98t62.5 89.5t77 96z" />
    <glyph glyph-name="parenright" unicode=")" horiz-adv-x="333" 
d="M82 -140h-142q63 76 101 129.5t71 120t47.5 139t14.5 161.5q0 173 -53 346h114q29 -92 40.5 -132.5t26 -116t14.5 -137.5q0 -64 -12.5 -123t-30 -103.5t-52 -98t-62.5 -89.5t-77 -96z" />
    <glyph glyph-name="asterisk" unicode="*" 
d="M181 641l119 -87l14 144l105 -23l-46 -136l142 27l8 -104h-141l71 -118l-100 -46l-45 138l-103 -114l-72 79l124 86l-132 58z" />
    <glyph glyph-name="plus" unicode="+" horiz-adv-x="600" 
d="M263 305v201h104v-201h202v-104h-202v-201h-104v201h-202v104h202z" />
    <glyph glyph-name="comma" unicode="," horiz-adv-x="278" 
d="M-37 -110l102 250h151l-133 -250h-120z" />
    <glyph glyph-name="hyphen" unicode="-" horiz-adv-x="389" 
d="M59 214l23 110h263l-23 -110h-263z" />
    <glyph glyph-name="period" unicode="." horiz-adv-x="278" 
d="M21 0l29 140h140l-29 -140h-140z" />
    <glyph glyph-name="slash" unicode="/" horiz-adv-x="278" 
d="M412 710l-381 -722h-116l381 722h116z" />
    <glyph glyph-name="zero" unicode="0" 
d="M419 503q0 103 -65 103q-45 0 -81.5 -50.5t-55 -121.5t-28 -131.5t-9.5 -95.5q0 -115 79 -115q42 0 75 53.5t50.5 128t26 136t8.5 93.5zM354 710q199 0 199 -232q0 -49 -6.5 -100.5t-20 -108t-37.5 -105.5t-56.5 -89t-79.5 -63.5t-104 -23.5q-105 0 -154 68.5t-49 177.5
q0 73 17.5 151t51.5 153t96.5 123.5t142.5 48.5z" />
    <glyph glyph-name="one" unicode="1" 
d="M185 450l-61 95l234 153h127l-151 -698h-140l119 539z" />
    <glyph glyph-name="two" unicode="2" 
d="M471 110l-21 -110h-459l22 115q33 31 109 91.5t128 104t95.5 97.5t43.5 94q0 46 -30 72t-75 26q-76 0 -161 -60l-3 125q117 45 188 45q97 0 162 -47.5t65 -141.5q0 -25 -7 -51t-16 -47.5t-28 -48t-32.5 -44.5t-41 -44t-41.5 -39.5t-46 -39t-43 -34t-43.5 -33t-37.5 -28.5
v-2h272z" />
    <glyph glyph-name="three" unicode="3" 
d="M7 28l25 107q78 -37 169 -37q59 0 104.5 28.5t45.5 86.5q0 27 -15 45.5t-33.5 27.5t-50 14t-49.5 5.5t-48 0.5l19 110q30 0 47 0.5t48 3.5t50 10.5t39 19.5t30 32.5t10 47.5q0 70 -106 70q-75 0 -153 -37l14 117q99 30 175 30q90 0 153 -41.5t63 -125.5q0 -73 -44.5 -117
t-119.5 -60v-3q58 -21 87.5 -55t29.5 -91q0 -112 -83.5 -170.5t-201.5 -58.5q-121 0 -205 40z" />
    <glyph glyph-name="four" unicode="4" 
d="M13 145l15 119l349 434h174l-97 -449h98l-22 -104h-96l-31 -145h-134l31 145h-287zM323 249l71 327h-2l-239 -327h170z" />
    <glyph glyph-name="five" unicode="5" 
d="M106 322l84 376h400l-22 -104h-268l-32 -143q12 1 37 1q93 0 153.5 -52.5t60.5 -159.5q0 -118 -82.5 -185t-206.5 -67q-98 0 -193 33l23 113q88 -36 151 -36q67 0 114.5 35.5t47.5 100.5q0 57 -41 82.5t-102 25.5q-62 0 -124 -20z" />
    <glyph glyph-name="six" unicode="6" 
d="M270 -12q-110 0 -162 66.5t-52 180.5q0 88 21.5 170t64 151.5t115 111.5t164.5 42q96 0 161 -29l-35 -102q-52 21 -117 21q-79 0 -130.5 -50.5t-77.5 -131.5h2q50 33 109 33q89 0 139 -51.5t50 -139.5q0 -119 -67.5 -195.5t-184.5 -76.5zM382 254q0 93 -81 93
q-54 0 -82.5 -45.5t-28.5 -103.5q0 -43 21 -74.5t58 -31.5q56 0 84.5 50t28.5 112z" />
    <glyph glyph-name="seven" unicode="7" 
d="M102 588l21 110h463l-26 -127l-359 -571h-162l377 588h-314z" />
    <glyph glyph-name="eight" unicode="8" 
d="M387 200q0 21 -5 37t-20.5 32t-22.5 22t-31 25q-134 -49 -134 -130q0 -45 28.5 -69.5t73.5 -24.5q47 0 79 30.5t32 77.5zM453 531q0 37 -28.5 56t-65.5 19q-43 0 -76.5 -26t-33.5 -68q0 -50 83 -99q27 10 44 18.5t37 22.5t30 33t10 44zM34 172q0 154 169 205
q-36 21 -59 56.5t-23 75.5q0 99 70.5 150t176.5 51q51 0 97.5 -15t81 -52t34.5 -90q0 -72 -38.5 -120t-109.5 -66q94 -54 94 -151q0 -112 -72.5 -170t-193.5 -58q-92 0 -159.5 50t-67.5 134z" />
    <glyph glyph-name="nine" unicode="9" 
d="M334 710q110 0 162 -66.5t52 -180.5q0 -88 -21.5 -170t-64 -151.5t-115 -111.5t-164.5 -42q-96 0 -161 29l35 102q52 -21 117 -21q79 0 130.5 50.5t77.5 131.5h-2q-50 -33 -109 -33q-89 0 -139 51.5t-50 139.5q0 119 67.5 195.5t184.5 76.5zM414 500q0 43 -21 74.5
t-58 31.5q-56 0 -84.5 -50t-28.5 -112q0 -93 81 -93q54 0 82.5 45.5t28.5 103.5z" />
    <glyph glyph-name="colon" unicode=":" horiz-adv-x="278" 
d="M128 515h140l-29 -140h-140zM50 140h140l-29 -140h-140z" />
    <glyph glyph-name="semicolon" unicode=";" horiz-adv-x="278" 
d="M65 140h151l-133 -250h-120zM128 515h140l-29 -140h-140z" />
    <glyph glyph-name="less" unicode="&#x3c;" horiz-adv-x="600" 
d="M569 94v-102l-508 218v86l508 218v-102l-373 -159z" />
    <glyph glyph-name="equal" unicode="=" horiz-adv-x="600" 
d="M569 414v-104h-508v104h508zM569 196v-104h-508v104h508z" />
    <glyph glyph-name="greater" unicode="&#x3e;" horiz-adv-x="600" 
d="M61 94l373 159l-373 159v102l508 -218v-86l-508 -218v102z" />
    <glyph glyph-name="question" unicode="?" horiz-adv-x="500" 
d="M279 205h-122q9 72 39 117.5t94 94.5q22 17 34.5 29.5t24 33.5t11.5 45q0 40 -36 60.5t-80 20.5q-67 0 -124 -25v112q83 17 142 17q62 0 114.5 -16.5t91 -59t38.5 -106.5q0 -31 -8.5 -57.5t-27.5 -49t-34.5 -37t-44.5 -37.5t-43 -35q-65 -57 -69 -107zM141 140h140
l-29 -140h-140z" />
    <glyph glyph-name="at" unicode="@" horiz-adv-x="800" 
d="M439 446q-47 0 -79.5 -40t-32.5 -88q0 -36 20 -59t55 -23q46 0 78.5 40.5t32.5 89.5q0 36 -20.5 58t-53.5 22zM655 143h85q-105 -155 -316 -155q-67 0 -130.5 23t-116 66.5t-84.5 114t-32 157.5q0 151 110.5 256t276.5 105q63 0 121.5 -17.5t108 -52t79.5 -92.5t30 -132
q0 -72 -29.5 -129t-72.5 -87.5t-82.5 -46t-67.5 -15.5q-22 0 -37.5 13.5t-16.5 38.5h-2q-46 -52 -101 -52q-64 0 -109.5 47t-45.5 118q0 99 60.5 170t145.5 71q73 0 116 -64l12 48h84l-55 -243q-7 -26 -7 -34q0 -15 15 -15q43 0 78 45.5t35 131.5q0 58 -23 100t-62.5 64
t-82.5 31.5t-91 9.5q-122 0 -202.5 -80t-80.5 -189q0 -116 73.5 -192.5t185.5 -76.5q156 0 231 63z" />
    <glyph glyph-name="A" unicode="A" horiz-adv-x="722" 
d="M432 574l-168 -304h216l-44 304h-4zM-42 0l423 698h155l127 -698h-140l-24 160h-297l-89 -160h-155z" />
    <glyph glyph-name="B" unicode="B" horiz-adv-x="611" 
d="M21 0l146 698h207q92 0 151.5 -39.5t59.5 -127.5q0 -62 -43.5 -109t-105.5 -57v-2q56 -9 84 -48.5t28 -98.5q0 -57 -25 -99t-59.5 -63.5t-84 -34.5t-84.5 -16t-75 -3h-199zM220 312l-42 -202h48q39 0 66 3.5t56 14.5t44.5 36t15.5 64q0 50 -38 67t-105 17h-45zM279 588
l-37 -172h55q148 0 148 102q0 24 -10 39t-29.5 21.5t-36 8t-41.5 1.5h-49z" />
    <glyph glyph-name="C" unicode="C" horiz-adv-x="611" 
d="M674 676l-35 -117q-60 41 -160 41q-116 0 -190 -79t-74 -202q0 -91 55 -156t144 -65q75 0 147 43l-22 -134q-69 -19 -158 -19q-153 0 -232.5 91.5t-79.5 239.5q0 172 109 281.5t291 109.5q122 0 205 -34z" />
    <glyph glyph-name="D" unicode="D" horiz-adv-x="722" 
d="M295 588l-100 -478h65q148 0 221 81t73 229q0 80 -57 124t-154 44h-48zM31 0l147 698h210q60 0 111 -13t98.5 -44.5t75 -92.5t27.5 -148q0 -53 -11 -104t-41 -106t-76.5 -96t-125.5 -67.5t-180 -26.5h-235z" />
    <glyph glyph-name="E" unicode="E" 
d="M31 0l147 698h411l-21 -110h-273l-36 -172h244l-22 -110h-245l-41 -196h276l-24 -110h-416z" />
    <glyph glyph-name="F" unicode="F" horiz-adv-x="500" 
d="M31 0l147 698h385l-24 -110h-244l-37 -172h233l-22 -110h-234l-64 -306h-140z" />
    <glyph glyph-name="G" unicode="G" horiz-adv-x="722" 
d="M726 671l-35 -121q-77 50 -194 50q-125 0 -201 -85.5t-76 -212.5q0 -87 54.5 -145.5t142.5 -58.5q53 0 69 7l39 185h-148l23 110h283l-80 -381q-75 -31 -187 -31q-160 0 -251 76.5t-91 233.5q0 190 114.5 301t304.5 111q131 0 233 -39z" />
    <glyph glyph-name="H" unicode="H" horiz-adv-x="722" 
d="M31 0l146 698h140l-59 -282h282l59 282h140l-146 -698h-140l64 306h-282l-64 -306h-140z" />
    <glyph glyph-name="I" unicode="I" horiz-adv-x="278" 
d="M17 0l147 698h146l-147 -698h-146z" />
    <glyph glyph-name="J" unicode="J" horiz-adv-x="389" 
d="M271 698h140l-98 -474q-23 -119 -71.5 -177.5t-158.5 -58.5q-64 0 -117 14l32 119q31 -11 64 -11q51 0 75.5 31t35.5 87z" />
    <glyph glyph-name="K" unicode="K" horiz-adv-x="667" 
d="M181 698h140l-59 -274h2l277 274h195l-353 -318l225 -380h-167l-194 355l-76 -355h-140z" />
    <glyph glyph-name="L" unicode="L" horiz-adv-x="500" 
d="M23 0l148 698h140l-125 -588h274l-24 -110h-413z" />
    <glyph glyph-name="M" unicode="M" horiz-adv-x="944" 
d="M31 0l148 698h231l47 -503h2l275 503h233l-149 -698h-148l132 578h-2l-316 -578h-134l-56 578h-2l-128 -578h-133z" />
    <glyph glyph-name="N" unicode="N" horiz-adv-x="722" 
d="M25 0l150 698h177l149 -530h2l114 530h132l-151 -698h-180l-146 535h-2l-111 -535h-134z" />
    <glyph glyph-name="O" unicode="O" horiz-adv-x="778" 
d="M466 710q141 0 216 -77.5t75 -218.5q0 -178 -117 -309q-105 -117 -296 -117q-126 0 -200.5 81.5t-74.5 208.5q0 173 110 302q114 130 287 130zM462 600q-58 0 -106.5 -31.5t-78.5 -81t-46 -106t-16 -111.5q0 -73 37.5 -122.5t109.5 -49.5q75 0 134 54.5t87 129t28 147.5
q0 74 -38.5 122.5t-110.5 48.5z" />
    <glyph glyph-name="P" unicode="P" 
d="M217 265l-56 -265h-140l148 698h118q34 0 58 -1t58.5 -4.5t58.5 -10.5t50.5 -20.5t43 -32.5t27 -47.5t10.5 -64.5q0 -121 -85 -186.5t-210 -65.5h-81zM286 588l-45 -213h50q63 0 109.5 33t46.5 94q0 86 -117 86h-44z" />
    <glyph glyph-name="Q" unicode="Q" horiz-adv-x="778" 
d="M648 -132h-167l-102 121q-12 -1 -35 -1q-126 0 -200.5 81.5t-74.5 208.5q0 173 110 302q114 130 287 130q141 0 216 -77.5t75 -218.5q0 -178 -117 -309q-55 -63 -139 -91zM462 600q-58 0 -106.5 -31.5t-78.5 -81t-46 -106t-16 -111.5q0 -73 37.5 -122.5t109.5 -49.5
q75 0 134 54.5t87 129t28 147.5q0 74 -38.5 122.5t-110.5 48.5z" />
    <glyph glyph-name="R" unicode="R" horiz-adv-x="611" 
d="M21 0l146 698h165h44t42.5 -1.5t43.5 -4t38.5 -8t37 -13.5t28.5 -21t24 -29t14 -38.5t6 -49.5q0 -87 -57.5 -135.5t-146.5 -50.5v-2q57 -3 71 -64l67 -281h-147l-34 164q-2 11 -6.5 34.5t-6.5 32t-8 23.5t-14 20.5t-21 10.5t-32 5h-53l-61 -290h-140zM286 588l-39 -188
h51q43 0 77.5 9t61.5 36t27 70q0 21 -7.5 35.5t-17.5 22t-29 11t-31 4t-35 0.5h-58z" />
    <glyph glyph-name="S" unicode="S" 
d="M553 679l-33 -115q-70 36 -145 36q-45 0 -81 -19.5t-36 -60.5q0 -30 24.5 -54.5t59.5 -44t70 -43t59.5 -63.5t24.5 -94q0 -120 -80.5 -176.5t-206.5 -56.5q-92 0 -199 39l36 119q104 -48 171 -48q55 0 94 28t39 81q0 34 -24.5 60t-59.5 44.5t-70 40t-59.5 59t-24.5 88.5
q0 53 21.5 94.5t58.5 66.5t82.5 37.5t97.5 12.5q104 0 181 -31z" />
    <glyph glyph-name="T" unicode="T" 
d="M84 588l24 110h539l-23 -110h-197l-127 -588h-146l127 588h-197z" />
    <glyph glyph-name="U" unicode="U" horiz-adv-x="722" 
d="M175 698h140l-71 -331q-6 -28 -10 -46.5t-8 -49t-3 -52t6.5 -46t18.5 -39.5t36 -25.5t55 -10.5q30 0 55 8.5t42.5 19.5t32.5 33.5t23.5 38.5t18 47.5t13 47.5t11.5 51l76 354h138l-93 -422q-32 -143 -105.5 -215.5t-212.5 -72.5q-311 0 -243 331z" />
    <glyph glyph-name="V" unicode="V" horiz-adv-x="667" 
d="M199 0l-92 698h140l65 -543h2l290 543h152l-390 -698h-167z" />
    <glyph glyph-name="W" unicode="W" horiz-adv-x="1000" 
d="M151 0l-44 698h140l21 -535h2l232 535h188l3 -535h2l247 535h145l-333 -698h-175l-7 558h-2l-246 -558h-173z" />
    <glyph glyph-name="X" unicode="X" horiz-adv-x="667" 
d="M126 698h151l101 -240h2l192 240h165l-289 -333l162 -365h-153l-107 280h-2l-218 -280h-174l323 379z" />
    <glyph glyph-name="Y" unicode="Y" horiz-adv-x="667" 
d="M210 0l61 289l-164 409h148l104 -293l227 293h163l-338 -409l-61 -289h-140z" />
    <glyph glyph-name="Z" unicode="Z" 
d="M124 588l24 110h479l-24 -110l-421 -478h318l-23 -110h-490l22 110l420 478h-305z" />
    <glyph glyph-name="bracketleft" unicode="[" horiz-adv-x="389" 
d="M31 -140l198 896h228l-21 -98h-106l-155 -700h105l-21 -98h-228z" />
    <glyph glyph-name="backslash" unicode="\" horiz-adv-x="278" 
d="M234 -12l-244 722h104l244 -722h-104z" />
    <glyph glyph-name="bracketright" unicode="]" horiz-adv-x="389" 
d="M396 756l-198 -896h-228l21 98h106l155 700h-105l21 98h228z" />
    <glyph glyph-name="asciicircum" unicode="^" horiz-adv-x="600" 
d="M190 313h-104l187 385h94l187 -385h-104l-130 280z" />
    <glyph glyph-name="underscore" unicode="_" horiz-adv-x="500" 
d="M0 -75h500v-50h-500v50z" />
    <glyph glyph-name="grave" unicode="`" horiz-adv-x="278" 
d="M296 585h-85l-129 146h133z" />
    <glyph glyph-name="a" unicode="a" 
d="M334 0l14 79h-2q-37 -46 -75 -68.5t-91 -22.5q-72 0 -115.5 38.5t-43.5 108.5q0 49 21.5 84.5t52.5 54t77.5 29t82.5 13t82 2.5h47q4 14 4 44q0 36 -30.5 51.5t-72.5 15.5q-84 0 -169 -40l19 107q88 31 175 31t143.5 -37.5t56.5 -121.5q0 -38 -29 -184t-34 -184h-113z
M149 140q0 -26 20 -40t48 -14q68 0 100.5 39t51.5 113h-47q-173 0 -173 -98z" />
    <glyph glyph-name="b" unicode="b" horiz-adv-x="611" 
d="M180 750h137l-66 -286v-2l2 2l1 -2q58 65 138 65q93 0 141 -57t48 -152q0 -84 -28.5 -157t-91.5 -123t-148 -50q-57 0 -87.5 16.5t-60.5 68.5h-2l-16 -73h-126zM205 213q0 -54 21 -87.5t67 -33.5q52 0 87.5 40t48 87t12.5 94q0 49 -24.5 79.5t-69.5 30.5
q-63 0 -102.5 -67t-39.5 -143z" />
    <glyph glyph-name="c" unicode="c" horiz-adv-x="444" 
d="M479 507l-33 -110q-40 26 -98 26q-76 0 -121.5 -59.5t-45.5 -137.5q0 -134 114 -134q55 0 109 26l-15 -106q-49 -24 -129 -24q-99 0 -159 61t-60 161q0 137 83.5 227t220.5 90q69 0 134 -20z" />
    <glyph glyph-name="d" unicode="d" horiz-adv-x="611" 
d="M524 750h134l-139 -636q-16 -88 -19 -114h-125l13 76h-2q-63 -88 -168 -88q-87 0 -132 61.5t-45 152.5q0 59 16.5 116t47 104t81.5 76t114 29q95 0 159 -73zM322 423q-45 0 -78.5 -37t-48 -83.5t-14.5 -88.5q0 -30 6 -55.5t25.5 -46t50.5 -20.5q69 0 112.5 65.5
t43.5 143.5q0 50 -24.5 86t-72.5 36z" />
    <glyph glyph-name="e" unicode="e" 
d="M523 216h-363q0 -69 36 -99.5t107 -30.5q78 0 158 37l-17 -106q-94 -29 -164 -29q-115 0 -181.5 57t-66.5 168q0 124 85 219t208 95q98 0 154.5 -50t56.5 -146q0 -53 -13 -115zM178 308h227q3 18 3 35q0 86 -85 86q-58 0 -90.5 -31t-54.5 -90z" />
    <glyph glyph-name="f" unicode="f" horiz-adv-x="389" 
d="M69 0l88 417h-104l21 98h104q9 44 19 76.5t27.5 66.5t41 55.5t59 35t80.5 13.5q42 0 83 -13l-31 -100q-18 9 -41 9q-25 0 -43.5 -12.5t-29.5 -35.5t-17 -41t-12 -45q-1 -6 -2 -9h120l-21 -98h-120l-88 -417h-134z" />
    <glyph glyph-name="g" unicode="g" horiz-adv-x="611" 
d="M5 -187l34 109q96 -40 162 -40q49 0 82 13.5t54.5 48.5t30.5 59.5t24 80.5q3 9 4 14h-2q-25 -46 -71 -72t-102 -26q-88 0 -133.5 63t-45.5 155q0 124 71 216.5t190 92.5q105 0 157 -87l15 75h129q-7 -23 -17 -72l-82 -387q-27 -136 -94 -207t-200 -71q-114 0 -206 35z
M418 315q0 47 -26 77.5t-71 30.5t-78.5 -36t-47 -80.5t-13.5 -87.5q0 -50 21 -82.5t64 -32.5q74 0 112.5 64t38.5 147z" />
    <glyph glyph-name="h" unicode="h" horiz-adv-x="611" 
d="M21 0l160 750h134l-64 -285h2q67 62 146 62q76 0 122 -44.5t46 -120.5q0 -34 -17 -112l-54 -250h-134l50 243q15 75 15 108q0 32 -20.5 52t-52.5 20q-108 0 -144 -164l-55 -259h-134z" />
    <glyph glyph-name="i" unicode="i" horiz-adv-x="278" 
d="M21 0l110 515h134l-110 -515h-134zM152 609l28 128h134l-28 -128h-134z" />
    <glyph glyph-name="j" unicode="j" horiz-adv-x="278" 
d="M131 515h134l-110 -513q-28 -131 -60 -177.5t-109 -46.5q-45 0 -89 12l32 98q18 -6 30 -6q22 0 33 17.5t18 51.5zM152 609l28 128h134l-28 -128h-134z" />
    <glyph glyph-name="k" unicode="k" 
d="M21 0l159 750h134l-89 -422h2l187 187h174l-247 -235l155 -280h-151l-133 273h-2l-58 -273h-131z" />
    <glyph glyph-name="l" unicode="l" horiz-adv-x="278" 
d="M21 0l159 750h134l-159 -750h-134z" />
    <glyph glyph-name="m" unicode="m" horiz-adv-x="889" 
d="M21 0l94 458q5 25 11 57h125l-12 -69h2q55 81 158 81q48 0 87 -27t44 -71h2q24 48 74 73t107 25q58 0 100.5 -41.5t42.5 -99.5q0 -52 -23 -140l-54 -246h-134l54 251q17 75 17 110q0 28 -18.5 45t-44.5 17q-19 0 -36 -7t-28 -15t-22 -26.5t-16.5 -29t-13 -35.5
t-9.5 -32.5t-8 -32.5l-53 -245h-134l54 251q17 75 17 110q0 28 -18.5 45t-44.5 17t-47.5 -13t-33.5 -28.5t-24 -45.5t-16 -45t-12 -46l-53 -245h-134z" />
    <glyph glyph-name="n" unicode="n" horiz-adv-x="611" 
d="M21 0l95 441q11 55 13 74h131l-9 -50h2q67 62 146 62q76 0 122 -44.5t46 -120.5q0 -34 -17 -112l-54 -250h-134l50 243q15 75 15 108q0 32 -20.5 52t-52.5 20q-108 0 -144 -164l-55 -259h-134z" />
    <glyph glyph-name="o" unicode="o" horiz-adv-x="611" 
d="M286 92q49 0 86 34.5t53.5 80.5t16.5 93q0 123 -102 123q-50 0 -87.5 -34t-54.5 -80.5t-17 -95.5q0 -121 105 -121zM346 527q106 0 171 -60.5t65 -165.5q0 -137 -85.5 -225t-221.5 -88q-109 0 -171.5 63t-62.5 172q0 129 87.5 216.5t217.5 87.5z" />
    <glyph glyph-name="p" unicode="p" horiz-adv-x="611" 
d="M-24 -210l136 658q9 45 11 67h127l-15 -68h2q57 80 155 80q93 0 141 -57t48 -152q0 -84 -28.5 -157t-91.5 -123t-148 -50q-114 0 -142 92h-2l-59 -290h-134zM441 313q0 49 -24.5 79.5t-69.5 30.5q-63 0 -102.5 -67t-39.5 -143q0 -54 21 -87.5t67 -33.5q52 0 87.5 40
t48 87t12.5 94z" />
    <glyph glyph-name="q" unicode="q" horiz-adv-x="611" 
d="M181 214q0 -30 6 -55.5t25.5 -46t50.5 -20.5q69 0 112.5 65.5t43.5 143.5q0 50 -24.5 86t-72.5 36q-45 0 -78.5 -37t-48 -83.5t-14.5 -88.5zM312 -210l62 277l-2 2q-44 -81 -154 -81q-87 0 -132 61.5t-45 152.5q0 59 16.5 116t47 104t81.5 76t114 29q59 0 96.5 -22.5
t56.5 -75.5h2l19 86h129q-12 -39 -22 -88l-135 -637h-134z" />
    <glyph glyph-name="r" unicode="r" horiz-adv-x="389" 
d="M21 0l92 446q6 33 12 69h128l-18 -97h2q19 43 63 76t89 33q31 0 51 -5l-28 -131q-24 8 -51 8q-66 0 -104.5 -48t-53.5 -120l-48 -231h-134z" />
    <glyph glyph-name="s" unicode="s" horiz-adv-x="444" 
d="M442 506l-29 -101q-65 24 -110 24q-36 0 -63 -12t-27 -40q0 -18 18 -35t43.5 -33t51 -35t43.5 -48t18 -64q0 -48 -19.5 -83.5t-54 -54.5t-73.5 -27.5t-85 -8.5q-91 0 -157 31l29 107q72 -40 128 -40q38 0 65 14t27 43q0 23 -18 42t-43.5 34.5t-51 33.5t-43.5 46t-18 64
q0 43 19.5 76t52.5 51.5t71 27.5t80 9q64 0 146 -21z" />
    <glyph glyph-name="t" unicode="t" horiz-adv-x="389" 
d="M53 417l21 98h97l23 106l144 47l-33 -153h120l-21 -98h-120l-49 -225q-6 -24 -6 -50q0 -23 14 -36.5t37 -13.5q36 0 65 12l-23 -104q-55 -12 -72 -12q-155 0 -155 135q0 43 17 120l38 174h-97z" />
    <glyph glyph-name="u" unicode="u" horiz-adv-x="611" 
d="M600 515l-95 -441q-11 -55 -13 -74h-131l9 50h-2q-67 -62 -146 -62q-76 0 -122 44.5t-46 120.5q0 34 17 112l54 250h134l-50 -243q-15 -75 -15 -108q0 -32 20.5 -52t52.5 -20q108 0 144 164l55 259h134z" />
    <glyph glyph-name="v" unicode="v" 
d="M153 0l-87 515h137l52 -378h2l203 378h142l-301 -515h-148z" />
    <glyph glyph-name="w" unicode="w" horiz-adv-x="889" 
d="M134 0l-68 515h134l37 -387h2l189 387h149l28 -387h2l198 387h137l-286 -515h-151l-29 394h-2l-188 -394h-152z" />
    <glyph glyph-name="x" unicode="x" 
d="M222 515l67 -177l145 177h160l-219 -246l123 -269h-146l-79 197l-154 -197h-160l233 269l-109 246h139z" />
    <glyph glyph-name="y" unicode="y" 
d="M66 515h137l48 -383h2l205 383h147l-349 -593q-26 -44 -47 -70.5t-63 -50t-95 -23.5q-49 0 -100 14l30 102q32 -12 59 -12q31 0 57 20t60 73z" />
    <glyph glyph-name="z" unicode="z" horiz-adv-x="500" 
d="M514 515l-22 -104l-315 -307h258l-19 -104h-431l21 104l317 307h-237l23 104h405z" />
    <glyph glyph-name="braceleft" unicode="{" horiz-adv-x="333" 
d="M435 756l-17 -80h-42q-54 0 -70 -70l-43 -189q-19 -87 -129 -108v-2q56 -4 72 -33t5 -84l-42 -186q-10 -27 -3.5 -45.5t37.5 -18.5h47l-17 -80h-86q-132 0 -99 150l34 151q14 48 0.5 76t-67.5 28l19 86q38 0 70.5 22t39.5 57l44 197q14 58 58 93.5t104 35.5h85z" />
    <glyph glyph-name="bar" unicode="|" horiz-adv-x="222" 
d="M84 750h104v-1000h-104v1000z" />
    <glyph glyph-name="braceright" unicode="}" horiz-adv-x="333" 
d="M15 -140h-85l17 80h42q54 0 70 70l43 189q19 87 129 108v2q-56 4 -72 33t-5 84l42 186q10 27 3.5 45.5t-37.5 18.5h-47l17 80h86q132 0 99 -150l-34 -151q-14 -48 -0.5 -76t67.5 -28l-19 -86q-38 0 -70.5 -22t-39.5 -57l-44 -197q-14 -58 -58 -93.5t-104 -35.5z" />
    <glyph glyph-name="asciitilde" unicode="~" horiz-adv-x="600" 
d="M120 164l-36 88q46 88 121 88q53 0 117 -34q3 -1 17 -8l18 -9t16 -7t18.5 -6.5t16.5 -3.5t19 -2q16 0 32.5 12t26 24.5t24.5 35.5l36 -88q-52 -88 -115 -88q-48 0 -116 35q-66 35 -109 35q-53 0 -86 -72z" />
    <glyph glyph-name="uni00A0" unicode="&#xa0;" horiz-adv-x="278" 
 />
    <glyph glyph-name="exclamdown" unicode="&#xa1;" horiz-adv-x="389" 
d="M283 375h-140l29 140h140zM176 -183h-157l126 493h111z" />
    <glyph glyph-name="cent" unicode="&#xa2;" 
d="M280 112l94 311q-64 -12 -101.5 -70t-37.5 -127q0 -83 45 -114zM440 639h52l-35 -117q37 -4 76 -15l-33 -110q-35 23 -72 28l-101 -330q8 -3 22 -3q55 0 109 26l-15 -106q-49 -24 -129 -24q-14 0 -19 1l-39 -128h-52l42 137q-71 18 -111 74.5t-40 137.5q0 137 83.5 227
t220.5 90h7z" />
    <glyph glyph-name="sterling" unicode="&#xa3;" 
d="M609 685l-30 -113q-56 28 -103 28q-41 0 -69.5 -14t-45 -42.5t-25.5 -55t-19 -67.5q-3 -12 -4 -18h155l-17 -80h-154l-48 -219h233l-23 -104h-459l23 104h86l48 219h-76l17 80h75q14 77 32 128t51 94.5t85.5 64t128.5 20.5q70 0 139 -25z" />
    <glyph glyph-name="currency" unicode="&#xa4;" 
d="M505 611l59 -59l-58 -58q46 -64 46 -142q0 -77 -46 -144l58 -58l-59 -59l-58 58q-66 -46 -143 -46t-143 46l-58 -58l-59 59l58 58q-46 65 -46 143q0 77 46 143l-58 58l59 59l58 -58q64 46 143 46q77 0 143 -46zM166 351q0 -59 40.5 -101.5t97.5 -42.5t97.5 42.5
t40.5 101.5t-40.5 101.5t-97.5 42.5t-97.5 -42.5t-40.5 -101.5z" />
    <glyph glyph-name="yen" unicode="&#xa5;" 
d="M70 698h141l99 -293l216 293h154l-270 -329h111l-16 -80h-146l-14 -62h148l-16 -80h-146l-29 -147h-134l31 147h-146l16 80h144l12 62h-146l16 80h110z" />
    <glyph glyph-name="brokenbar" unicode="&#xa6;" horiz-adv-x="222" 
d="M84 675h104v-350h-104v350zM84 175h104v-350h-104v350z" />
    <glyph glyph-name="section" unicode="&#xa7;" 
d="M16 -96l34 101q96 -37 164 -37q27 0 50.5 4t45 19t21.5 40q0 28 -24.5 48.5t-60 36t-71 34t-60 52.5t-24.5 81q0 53 35.5 92t85.5 56q-57 45 -57 102q0 87 65.5 132t156.5 45q110 0 194 -42l-39 -98q-64 36 -149 36q-44 0 -78 -15t-34 -47q0 -27 25 -47t61 -36t72 -34.5
t61 -52t25 -78.5q0 -48 -33.5 -88t-81.5 -59q53 -43 53 -99q0 -90 -66 -138t-161 -48q-93 0 -210 40zM277 389q-18 -9 -29 -15.5t-25 -17.5t-21 -25t-7 -31q0 -21 18 -40t34 -28.5t49.5 -24t36.5 -16.5q16 8 27.5 15.5t24.5 18.5t19.5 25t6.5 30t-9.5 30.5t-27.5 26.5
t-32.5 20.5t-36.5 18.5t-28 13z" />
    <glyph glyph-name="dieresis" unicode="&#xa8;" horiz-adv-x="278" 
d="M171 725l-25 -116h-114l25 116h114zM379 725l-25 -116h-114l25 116h114z" />
    <glyph glyph-name="copyright" unicode="&#xa9;" horiz-adv-x="800" 
d="M679 349q0 123 -74 202t-183 79q-110 0 -183.5 -79t-73.5 -202q0 -124 73.5 -202.5t183.5 -78.5q109 0 183 79t74 202zM528 291h83q-11 -71 -59.5 -111.5t-115.5 -40.5q-91 0 -147.5 60.5t-56.5 152.5q0 93 54.5 153t147.5 60q69 0 116.5 -39t57.5 -111h-80
q-7 34 -32.5 52t-61.5 18q-49 0 -76.5 -36t-27.5 -96q0 -57 29.5 -95.5t76.5 -38.5q38 0 63 19t29 53zM61 349q0 149 106 255t255 106t255 -106t106 -255t-106 -255t-255 -106t-255 106t-106 255z" />
    <glyph glyph-name="ordfeminine" unicode="&#xaa;" horiz-adv-x="361" 
d="M358 392h-87l10 48h-2q-39 -56 -108 -56q-46 0 -72.5 23.5t-26.5 65.5q0 37 20 61.5t56 34t64 12.5t66 3h29q0 3 1 8.5t1.5 10t0.5 8.5q0 18 -19 28.5t-46 10.5q-54 0 -110 -28l12 70q55 18 114 18q135 0 135 -96q0 -23 -23 -138q-11 -55 -15 -84zM205 444q67 0 89 86
h-20q-116 0 -116 -54q0 -15 14.5 -23.5t32.5 -8.5z" />
    <glyph glyph-name="guillemotleft" unicode="&#xab;" horiz-adv-x="611" 
d="M268 269l150 205h140l-158 -205l70 -205h-115zM46 269l150 205h140l-158 -205l70 -205h-115z" />
    <glyph glyph-name="logicalnot" unicode="&#xac;" horiz-adv-x="600" 
d="M465 108v202h-404v104h508v-306h-104z" />
    <glyph glyph-name="uni00AD" unicode="&#xad;" horiz-adv-x="389" 
d="M59 214l23 110h263l-23 -110h-263z" />
    <glyph glyph-name="registered" unicode="&#xae;" horiz-adv-x="800" 
d="M61 349q0 149 106 255t255 106t255 -106t106 -255t-106 -255t-255 -106t-255 106t-106 255zM165 349q0 -124 73.5 -202.5t183.5 -78.5q109 0 183 79t74 202t-74 202t-183 79q-110 0 -183.5 -79t-73.5 -202zM277 150v401h151q80 0 120 -27.5t40 -92.5q0 -98 -106 -107
l106 -174h-88l-96 170h-41v-170h-86zM363 386h70q35 0 52 10.5t17 42.5q0 46 -78 46h-61v-99z" />
    <glyph glyph-name="macron" unicode="&#xaf;" horiz-adv-x="278" 
d="M53 618l16 80h297l-15 -80h-298z" />
    <glyph glyph-name="degree" unicode="&#xb0;" horiz-adv-x="400" 
d="M252 637q-39 0 -63.5 -24.5t-24.5 -63.5t24.5 -63.5t63.5 -24.5t63.5 24.5t24.5 63.5t-24.5 63.5t-63.5 24.5zM252 710q67 0 114 -47t47 -114q0 -68 -46.5 -114.5t-114.5 -46.5q-70 0 -115.5 45.5t-45.5 115.5q0 67 47 114t114 47z" />
    <glyph glyph-name="plusminus" unicode="&#xb1;" horiz-adv-x="600" 
d="M263 374v132h104v-132h202v-104h-202v-133h-104v133h-202v104h202zM61 0v104h508v-104h-508z" />
    <glyph glyph-name="twosuperior" unicode="&#xb2;" horiz-adv-x="361" 
d="M113 598l-3 85q79 27 133 27q66 0 112 -26t46 -87q0 -57 -59 -120q-60 -64 -141 -107v-2h159l-14 -86h-319l14 70q9 7 62 47.5t81 62.5q3 3 22 17t28.5 22t23.5 22t20.5 27t6.5 25q0 24 -18 36.5t-49 12.5q-41 0 -105 -26z" />
    <glyph glyph-name="threesuperior" unicode="&#xb3;" horiz-adv-x="361" 
d="M111 611l9 81q67 18 124 18q150 0 150 -101q0 -44 -31 -71t-76 -35v-2q76 -26 76 -84q0 -51 -31 -84t-72.5 -45t-90.5 -12q-87 0 -143 25l16 74q50 -19 110 -19q37 0 66 14t29 42q0 44 -90 44h-35l12 80q144 0 144 59q0 16 -17.5 25.5t-39.5 9.5q-66 0 -110 -19z" />
    <glyph glyph-name="acute" unicode="&#xb4;" horiz-adv-x="278" 
d="M132 585l81 146h133l-128 -146h-86z" />
    <glyph glyph-name="mu" unicode="&#xb5;" horiz-adv-x="611" 
d="M127 515h132l-50 -243q-15 -75 -15 -108q0 -32 20.5 -52t52.5 -20q108 0 144 164l55 259h134l-95 -441q-11 -55 -13 -74h-131l9 50h-2q-67 -62 -146 -62q-41 0 -64 34l-48 -232h-134z" />
    <glyph glyph-name="paragraph" unicode="&#xb6;" horiz-adv-x="620" 
d="M178 -124l97 465q-90 0 -138.5 36t-48.5 99q0 84 52 142q71 80 230 80h293l-171 -822h-104l154 742h-106l-154 -742h-104z" />
    <glyph glyph-name="periodcentered" unicode="&#xb7;" horiz-adv-x="278" 
d="M157 207q-31 0 -54 23t-23 54t23 54t54 23t54 -22.5t23 -54.5t-23 -54.5t-54 -22.5z" />
    <glyph glyph-name="cedilla" unicode="&#xb8;" horiz-adv-x="278" 
d="M59 -191l17 56q49 -27 100 -27q22 0 42 9.5t20 29.5q0 19 -17.5 28t-37.5 9q-14 0 -27 -5l31 91h55l-15 -44q41 0 62 -9q47 -16 47 -69q0 -55 -45 -77.5t-107 -22.5q-56 0 -125 31z" />
    <glyph glyph-name="onesuperior" unicode="&#xb9;" horiz-adv-x="361" 
d="M131 553l-39 57l152 94h102l-98 -422h-110l77 322z" />
    <glyph glyph-name="ordmasculine" unicode="&#xba;" horiz-adv-x="397" 
d="M282 650q-46 0 -75.5 -38.5t-29.5 -85.5q0 -36 17 -59t51 -23q43 0 73 40t30 84q0 35 -16.5 58.5t-49.5 23.5zM285 710q69 0 115 -34.5t46 -101.5q0 -88 -59 -139t-148 -51q-72 0 -116 36t-44 107q0 83 60.5 133t145.5 50z" />
    <glyph glyph-name="guillemotright" unicode="&#xbb;" horiz-adv-x="611" 
d="M343 269l-150 -205h-140l158 205l-70 205h115zM565 269l-150 -205h-140l158 205l-70 205h115z" />
    <glyph glyph-name="onequarter" unicode="&#xbc;" horiz-adv-x="834" 
d="M398 163l227 259h133l-61 -265h65l-19 -80h-63l-18 -77h-107l18 77h-186zM628 324l-138 -167h101l39 167h-2zM152 -22l420 742h85l-420 -742h-85zM116 610l152 94h102l-98 -422h-110l77 322l-84 -51z" />
    <glyph glyph-name="onehalf" unicode="&#xbd;" horiz-adv-x="834" 
d="M557 720h85l-420 -742h-85zM155 553l-39 57l152 94h102l-98 -422h-110l77 324zM422 0l14 70q9 7 62 47.5t81 62.5q3 3 22 17t28.5 22t23.5 22t20.5 27t6.5 25q0 24 -18 36.5t-49 12.5q-41 0 -105 -26l-3 85q79 27 133 27q66 0 112 -26t46 -87q0 -57 -59 -120
q-60 -64 -141 -107v-2h159l-14 -86h-319z" />
    <glyph glyph-name="threequarters" unicode="&#xbe;" horiz-adv-x="834" 
d="M585 0l18 77h-186l11 86l227 259h133l-61 -265h65l-19 -80h-63l-18 -77h-107zM520 157h101l39 167h-2zM612 720h85l-420 -742h-85zM125 611l9 81q67 18 124 18q150 0 150 -101q0 -44 -31 -71t-76 -35v-2q76 -26 76 -86q0 -50 -31 -82.5t-72.5 -44.5t-90.5 -12
q-87 0 -143 25l16 74q50 -19 110 -19q37 0 66 14t29 42q0 44 -90 44h-35l12 80q144 0 144 59q0 16 -17.5 25.5t-39.5 9.5q-66 0 -110 -19z" />
    <glyph glyph-name="questiondown" unicode="&#xbf;" horiz-adv-x="500" 
d="M222 310h122q-9 -72 -39 -117.5t-94 -94.5q-22 -17 -35 -29t-24.5 -33.5t-11.5 -45.5q0 -40 36.5 -60.5t80.5 -20.5q67 0 124 25v-112q-83 -17 -142 -17q-45 0 -86.5 10t-78 30t-58.5 57t-22 85q0 31 8.5 57.5t27.5 49t35 37t45 37.5t43 35q65 57 69 107zM248 515h140
l-29 -140h-140z" />
    <glyph glyph-name="Agrave" unicode="&#xc0;" horiz-adv-x="722" 
d="M432 574l-168 -304h216l-44 304h-4zM-42 0l423 698h155l127 -698h-140l-24 160h-297l-89 -160h-155zM538 738h-85l-129 146h133z" />
    <glyph glyph-name="Aacute" unicode="&#xc1;" horiz-adv-x="722" 
d="M432 574l-168 -304h216l-44 304h-4zM-42 0l423 698h155l127 -698h-140l-24 160h-297l-89 -160h-155zM404 738l81 146h133l-128 -146h-86z" />
    <glyph glyph-name="Acircumflex" unicode="&#xc2;" horiz-adv-x="722" 
d="M432 574l-168 -304h216l-44 304h-4zM-42 0l423 698h155l127 -698h-140l-24 160h-297l-89 -160h-155zM414 738h-100l129 146h115l75 -146h-89l-50 93z" />
    <glyph glyph-name="Atilde" unicode="&#xc3;" horiz-adv-x="722" 
d="M432 574l-168 -304h216l-44 304h-4zM-42 0l423 698h155l127 -698h-140l-24 160h-297l-89 -160h-155zM611 884h51q-17 -119 -118 -119q-25 0 -71 20t-64 20q-20 0 -34 -15t-16 -34h-51q20 121 116 121q29 0 75 -20t58 -20q23 0 35 11t19 36z" />
    <glyph glyph-name="Adieresis" unicode="&#xc4;" horiz-adv-x="722" 
d="M432 574l-168 -304h216l-44 304h-4zM-42 0l423 698h155l127 -698h-140l-24 160h-297l-89 -160h-155zM443 878l-25 -116h-114l25 116h114zM651 878l-25 -116h-114l25 116h114z" />
    <glyph glyph-name="Aring" unicode="&#xc5;" horiz-adv-x="722" 
d="M432 574l-168 -304h216l-44 304h-4zM-42 0l423 698h155l127 -698h-140l-24 160h-297l-89 -160h-155zM584 830q0 -42 -31.5 -73t-73.5 -31t-73 31t-31 73t31 73.5t73 31.5q43 0 74 -31t31 -74zM479 881q-21 0 -35.5 -15t-14.5 -36q0 -22 14.5 -36t35.5 -14q22 0 36.5 14
t14.5 36t-14.5 36.5t-36.5 14.5z" />
    <glyph glyph-name="AE" unicode="&#xc6;" horiz-adv-x="944" 
d="M-42 0l503 698h487l-22 -116h-249l-26 -166h212l-22 -110h-207l-30 -196h224l-24 -110h-352l25 160h-247l-117 -160h-155zM541 588l-232 -318h185l49 316z" />
    <glyph glyph-name="Ccedilla" unicode="&#xc7;" horiz-adv-x="611" 
d="M674 676l-35 -117q-60 41 -160 41q-116 0 -190 -79t-74 -202q0 -91 55 -156t144 -65q75 0 147 43l-22 -134q-68 -19 -154 -19l-11 -32q41 0 62 -9q47 -16 47 -69q0 -55 -45 -77.5t-107 -22.5q-56 0 -125 31l17 56q49 -27 100 -27q22 0 42 9.5t20 29.5q0 19 -17.5 28
t-37.5 9q-14 0 -27 -5l28 82q-128 15 -195 104t-67 224q0 172 109 281.5t291 109.5q122 0 205 -34z" />
    <glyph glyph-name="Egrave" unicode="&#xc8;" 
d="M31 0l147 698h411l-21 -110h-273l-36 -172h244l-22 -110h-245l-41 -196h276l-24 -110h-416zM465 738h-85l-129 146h133z" />
    <glyph glyph-name="Eacute" unicode="&#xc9;" 
d="M31 0l147 698h411l-21 -110h-273l-36 -172h244l-22 -110h-245l-41 -196h276l-24 -110h-416zM301 738l81 146h133l-128 -146h-86z" />
    <glyph glyph-name="Ecircumflex" unicode="&#xca;" 
d="M31 0l147 698h411l-21 -110h-273l-36 -172h244l-22 -110h-245l-41 -196h276l-24 -110h-416zM311 738h-100l129 146h115l75 -146h-89l-50 93z" />
    <glyph glyph-name="Edieresis" unicode="&#xcb;" 
d="M31 0l147 698h411l-21 -110h-273l-36 -172h244l-22 -110h-245l-41 -196h276l-24 -110h-416zM340 878l-25 -116h-114l25 116h114zM548 878l-25 -116h-114l25 116h114z" />
    <glyph glyph-name="Igrave" unicode="&#xcc;" horiz-adv-x="278" 
d="M17 0l147 698h146l-147 -698h-146zM316 738h-85l-129 146h133z" />
    <glyph glyph-name="Iacute" unicode="&#xcd;" horiz-adv-x="278" 
d="M17 0l147 698h146l-147 -698h-146zM182 738l81 146h133l-128 -146h-86z" />
    <glyph glyph-name="Icircumflex" unicode="&#xce;" horiz-adv-x="278" 
d="M17 0l147 698h146l-147 -698h-146zM192 738h-100l129 146h115l75 -146h-89l-50 93z" />
    <glyph glyph-name="Idieresis" unicode="&#xcf;" horiz-adv-x="278" 
d="M17 0l147 698h146l-147 -698h-146zM221 878l-25 -116h-114l25 116h114zM429 878l-25 -116h-114l25 116h114z" />
    <glyph glyph-name="Eth" unicode="&#xd0;" horiz-adv-x="722" 
d="M31 0l70 330h-59l19 92h59l58 276h166q80 0 140.5 -13t111 -43.5t77.5 -88t27 -140.5q0 -97 -25 -170t-68.5 -118.5t-109 -74t-138 -39.5t-164.5 -11h-164zM295 588l-35 -166h160l-19 -92h-160l-46 -220h45q149 0 231.5 71t82.5 217q0 95 -56.5 142.5t-154.5 47.5h-48z
" />
    <glyph glyph-name="Ntilde" unicode="&#xd1;" horiz-adv-x="722" 
d="M25 0l150 698h177l149 -530h2l114 530h132l-151 -698h-180l-146 535h-2l-111 -535h-134zM611 884h51q-17 -119 -118 -119q-25 0 -71 20t-64 20q-20 0 -34 -15t-16 -34h-51q20 121 116 121q29 0 75 -20t58 -20q23 0 35 11t19 36z" />
    <glyph glyph-name="Ograve" unicode="&#xd2;" horiz-adv-x="778" 
d="M466 710q141 0 216 -77.5t75 -218.5q0 -178 -117 -309q-105 -117 -296 -117q-126 0 -200.5 81.5t-74.5 208.5q0 173 110 302q114 130 287 130zM462 600q-58 0 -106.5 -31.5t-78.5 -81t-46 -106t-16 -111.5q0 -73 37.5 -122.5t109.5 -49.5q75 0 134 54.5t87 129t28 147.5
q0 74 -38.5 122.5t-110.5 48.5zM566 738h-85l-129 146h133z" />
    <glyph glyph-name="Oacute" unicode="&#xd3;" horiz-adv-x="778" 
d="M466 710q141 0 216 -77.5t75 -218.5q0 -178 -117 -309q-105 -117 -296 -117q-126 0 -200.5 81.5t-74.5 208.5q0 173 110 302q114 130 287 130zM462 600q-58 0 -106.5 -31.5t-78.5 -81t-46 -106t-16 -111.5q0 -73 37.5 -122.5t109.5 -49.5q75 0 134 54.5t87 129t28 147.5
q0 74 -38.5 122.5t-110.5 48.5zM432 738l81 146h133l-128 -146h-86z" />
    <glyph glyph-name="Ocircumflex" unicode="&#xd4;" horiz-adv-x="778" 
d="M466 710q141 0 216 -77.5t75 -218.5q0 -178 -117 -309q-105 -117 -296 -117q-126 0 -200.5 81.5t-74.5 208.5q0 173 110 302q114 130 287 130zM462 600q-58 0 -106.5 -31.5t-78.5 -81t-46 -106t-16 -111.5q0 -73 37.5 -122.5t109.5 -49.5q75 0 134 54.5t87 129t28 147.5
q0 74 -38.5 122.5t-110.5 48.5zM442 738h-100l129 146h115l75 -146h-89l-50 93z" />
    <glyph glyph-name="Otilde" unicode="&#xd5;" horiz-adv-x="778" 
d="M466 710q141 0 216 -77.5t75 -218.5q0 -178 -117 -309q-105 -117 -296 -117q-126 0 -200.5 81.5t-74.5 208.5q0 173 110 302q114 130 287 130zM462 600q-58 0 -106.5 -31.5t-78.5 -81t-46 -106t-16 -111.5q0 -73 37.5 -122.5t109.5 -49.5q75 0 134 54.5t87 129t28 147.5
q0 74 -38.5 122.5t-110.5 48.5zM639 884h51q-17 -119 -118 -119q-25 0 -71 20t-64 20q-20 0 -34 -15t-16 -34h-51q20 121 116 121q29 0 75 -20t58 -20q23 0 35 11t19 36z" />
    <glyph glyph-name="Odieresis" unicode="&#xd6;" horiz-adv-x="778" 
d="M466 710q141 0 216 -77.5t75 -218.5q0 -178 -117 -309q-105 -117 -296 -117q-126 0 -200.5 81.5t-74.5 208.5q0 173 110 302q114 130 287 130zM462 600q-58 0 -106.5 -31.5t-78.5 -81t-46 -106t-16 -111.5q0 -73 37.5 -122.5t109.5 -49.5q75 0 134 54.5t87 129t28 147.5
q0 74 -38.5 122.5t-110.5 48.5zM471 878l-25 -116h-114l25 116h114zM679 878l-25 -116h-114l25 116h114z" />
    <glyph glyph-name="multiply" unicode="&#xd7;" horiz-adv-x="600" 
d="M243 253l-162 162l72 72l162 -162l162 162l72 -72l-163 -162l163 -162l-72 -72l-162 163l-162 -163l-72 72z" />
    <glyph glyph-name="Oslash" unicode="&#xd8;" horiz-adv-x="778" 
d="M237 172l302 408q-32 20 -77 20q-58 0 -106.5 -31.5t-78.5 -81t-46 -106t-16 -111.5q0 -57 22 -98zM584 534l-303 -412q34 -24 81 -24q75 0 134 54.5t87 129t28 147.5q0 61 -27 105zM688 783l52 -38l-73 -99q90 -76 90 -232q0 -178 -117 -309q-105 -117 -296 -117
q-78 0 -137 34l-80 -108l-51 39l78 106q-85 79 -85 219q0 173 110 302q114 130 287 130q86 0 146 -30z" />
    <glyph glyph-name="Ugrave" unicode="&#xd9;" horiz-adv-x="722" 
d="M175 698h140l-71 -331q-6 -28 -10 -46.5t-8 -49t-3 -52t6.5 -46t18.5 -39.5t36 -25.5t55 -10.5q30 0 55 8.5t42.5 19.5t32.5 33.5t23.5 38.5t18 47.5t13 47.5t11.5 51l76 354h138l-93 -422q-32 -143 -105.5 -215.5t-212.5 -72.5q-311 0 -243 331zM538 738h-85l-129 146
h133z" />
    <glyph glyph-name="Uacute" unicode="&#xda;" horiz-adv-x="722" 
d="M175 698h140l-71 -331q-6 -28 -10 -46.5t-8 -49t-3 -52t6.5 -46t18.5 -39.5t36 -25.5t55 -10.5q30 0 55 8.5t42.5 19.5t32.5 33.5t23.5 38.5t18 47.5t13 47.5t11.5 51l76 354h138l-93 -422q-32 -143 -105.5 -215.5t-212.5 -72.5q-311 0 -243 331zM404 738l81 146h133
l-128 -146h-86z" />
    <glyph glyph-name="Ucircumflex" unicode="&#xdb;" horiz-adv-x="722" 
d="M175 698h140l-71 -331q-6 -28 -10 -46.5t-8 -49t-3 -52t6.5 -46t18.5 -39.5t36 -25.5t55 -10.5q30 0 55 8.5t42.5 19.5t32.5 33.5t23.5 38.5t18 47.5t13 47.5t11.5 51l76 354h138l-93 -422q-32 -143 -105.5 -215.5t-212.5 -72.5q-311 0 -243 331zM414 738h-100l129 146
h115l75 -146h-89l-50 93z" />
    <glyph glyph-name="Udieresis" unicode="&#xdc;" horiz-adv-x="722" 
d="M175 698h140l-71 -331q-6 -28 -10 -46.5t-8 -49t-3 -52t6.5 -46t18.5 -39.5t36 -25.5t55 -10.5q30 0 55 8.5t42.5 19.5t32.5 33.5t23.5 38.5t18 47.5t13 47.5t11.5 51l76 354h138l-93 -422q-32 -143 -105.5 -215.5t-212.5 -72.5q-311 0 -243 331zM443 878l-25 -116h-114
l25 116h114zM651 878l-25 -116h-114l25 116h114z" />
    <glyph glyph-name="Yacute" unicode="&#xdd;" horiz-adv-x="667" 
d="M210 0l61 289l-164 409h148l104 -293l227 293h163l-338 -409l-61 -289h-140zM377 738l81 146h133l-128 -146h-86z" />
    <glyph glyph-name="Thorn" unicode="&#xde;" 
d="M192 149l-31 -149h-140l146 698h140l-24 -116q43 0 78 -3t75 -14.5t67 -30t45 -53t18 -80.5q0 -121 -85 -186.5t-210 -65.5h-79zM259 472l-45 -213h50q63 0 109.5 33t46.5 94q0 86 -117 86h-44z" />
    <glyph glyph-name="germandbls" unicode="&#xdf;" horiz-adv-x="611" 
d="M21 0l113 544q45 218 263 218q86 0 151 -42t65 -121q0 -87 -42.5 -132.5t-129.5 -66.5v-2q61 -12 96.5 -50.5t35.5 -95.5q0 -119 -76.5 -188.5t-196.5 -69.5q-38 0 -94 14l21 110q37 -20 63 -20q73 0 108 48.5t35 107.5q0 88 -127 88l20 104q66 0 106.5 35.5t40.5 99.5
q0 36 -21 56.5t-61 20.5q-28 0 -49 -9.5t-34 -23.5t-23.5 -39t-16 -45t-12.5 -53l-101 -488h-134z" />
    <glyph glyph-name="agrave" unicode="&#xe0;" 
d="M334 0l14 79h-2q-37 -46 -75 -68.5t-91 -22.5q-72 0 -115.5 38.5t-43.5 108.5q0 49 21.5 84.5t52.5 54t77.5 29t82.5 13t82 2.5h47q4 14 4 44q0 36 -30.5 51.5t-72.5 15.5q-84 0 -169 -40l19 107q88 31 175 31t143.5 -37.5t56.5 -121.5q0 -38 -29 -184t-34 -184h-113z
M149 140q0 -26 20 -40t48 -14q68 0 100.5 39t51.5 113h-47q-173 0 -173 -98zM405 585h-85l-129 146h133z" />
    <glyph glyph-name="aacute" unicode="&#xe1;" 
d="M334 0l14 79h-2q-37 -46 -75 -68.5t-91 -22.5q-72 0 -115.5 38.5t-43.5 108.5q0 49 21.5 84.5t52.5 54t77.5 29t82.5 13t82 2.5h47q4 14 4 44q0 36 -30.5 51.5t-72.5 15.5q-84 0 -169 -40l19 107q88 31 175 31t143.5 -37.5t56.5 -121.5q0 -38 -29 -184t-34 -184h-113z
M149 140q0 -26 20 -40t48 -14q68 0 100.5 39t51.5 113h-47q-173 0 -173 -98zM271 585l81 146h133l-128 -146h-86z" />
    <glyph glyph-name="acircumflex" unicode="&#xe2;" 
d="M334 0l14 79h-2q-37 -46 -75 -68.5t-91 -22.5q-72 0 -115.5 38.5t-43.5 108.5q0 49 21.5 84.5t52.5 54t77.5 29t82.5 13t82 2.5h47q4 14 4 44q0 36 -30.5 51.5t-72.5 15.5q-84 0 -169 -40l19 107q88 31 175 31t143.5 -37.5t56.5 -121.5q0 -38 -29 -184t-34 -184h-113z
M149 140q0 -26 20 -40t48 -14q68 0 100.5 39t51.5 113h-47q-173 0 -173 -98zM281 585h-100l129 146h115l75 -146h-89l-50 93z" />
    <glyph glyph-name="atilde" unicode="&#xe3;" 
d="M334 0l14 79h-2q-37 -46 -75 -68.5t-91 -22.5q-72 0 -115.5 38.5t-43.5 108.5q0 49 21.5 84.5t52.5 54t77.5 29t82.5 13t82 2.5h47q4 14 4 44q0 36 -30.5 51.5t-72.5 15.5q-84 0 -169 -40l19 107q88 31 175 31t143.5 -37.5t56.5 -121.5q0 -38 -29 -184t-34 -184h-113z
M149 140q0 -26 20 -40t48 -14q68 0 100.5 39t51.5 113h-47q-173 0 -173 -98zM478 731h51q-17 -119 -118 -119q-25 0 -71 20t-64 20q-20 0 -34 -15t-16 -34h-51q20 121 116 121q29 0 75 -20t58 -20q23 0 35 11t19 36z" />
    <glyph glyph-name="adieresis" unicode="&#xe4;" 
d="M334 0l14 79h-2q-37 -46 -75 -68.5t-91 -22.5q-72 0 -115.5 38.5t-43.5 108.5q0 49 21.5 84.5t52.5 54t77.5 29t82.5 13t82 2.5h47q4 14 4 44q0 36 -30.5 51.5t-72.5 15.5q-84 0 -169 -40l19 107q88 31 175 31t143.5 -37.5t56.5 -121.5q0 -38 -29 -184t-34 -184h-113z
M149 140q0 -26 20 -40t48 -14q68 0 100.5 39t51.5 113h-47q-173 0 -173 -98zM310 725l-25 -116h-114l25 116h114zM518 725l-25 -116h-114l25 116h114z" />
    <glyph glyph-name="aring" unicode="&#xe5;" 
d="M334 0l14 79h-2q-37 -46 -75 -68.5t-91 -22.5q-72 0 -115.5 38.5t-43.5 108.5q0 49 21.5 84.5t52.5 54t77.5 29t82.5 13t82 2.5h47q4 14 4 44q0 36 -30.5 51.5t-72.5 15.5q-84 0 -169 -40l19 107q88 31 175 31t143.5 -37.5t56.5 -121.5q0 -38 -29 -184t-34 -184h-113z
M149 140q0 -26 20 -40t48 -14q68 0 100.5 39t51.5 113h-47q-173 0 -173 -98zM485 687q0 -42 -31.5 -73t-73.5 -31t-73 31t-31 73t31 73.5t73 31.5q43 0 74 -31t31 -74zM380 738q-21 0 -35.5 -15t-14.5 -36q0 -22 14.5 -36t35.5 -14q22 0 36.5 14t14.5 36t-14.5 36.5
t-36.5 14.5z" />
    <glyph glyph-name="ae" unicode="&#xe6;" horiz-adv-x="889" 
d="M123 389l19 109q90 29 173 29q31 0 55.5 -3t50 -12.5t43 -29t23.5 -48.5h2q52 93 175 93q96 0 150.5 -50t54.5 -145q0 -56 -14 -116h-340q-3 -130 126 -130q64 0 145 34l-20 -106q-76 -26 -163 -26q-65 0 -110 24.5t-77 82.5q-54 -107 -222 -107q-82 0 -127.5 38
t-45.5 113q0 179 306 179h69q3 13 3 30q0 81 -108 81q-85 0 -168 -40zM149 148q0 -31 23.5 -46.5t59.5 -15.5q64 0 98.5 41t55.5 111h-52q-24 0 -36.5 -0.5t-38.5 -2.5t-42 -8t-33.5 -15t-26 -25.5t-8.5 -38.5zM528 308h209q4 26 4 41q0 39 -19.5 62.5t-56.5 23.5
q-51 0 -88 -37.5t-49 -89.5z" />
    <glyph glyph-name="ccedilla" unicode="&#xe7;" horiz-adv-x="444" 
d="M479 507l-33 -110q-40 26 -98 26q-76 0 -121.5 -59.5t-45.5 -137.5q0 -134 114 -134q55 0 109 26l-15 -106q-44 -21 -108 -23l-11 -33q41 0 62 -9q47 -16 47 -69q0 -55 -45 -77.5t-107 -22.5q-56 0 -125 31l17 56q49 -27 100 -27q22 0 42 9.5t20 29.5q0 19 -17.5 28
t-37.5 9q-14 0 -27 -5l28 82q-86 10 -136 69t-50 150q0 137 83.5 227t220.5 90q69 0 134 -20z" />
    <glyph glyph-name="egrave" unicode="&#xe8;" 
d="M523 216h-363q0 -69 36 -99.5t107 -30.5q78 0 158 37l-17 -106q-94 -29 -164 -29q-115 0 -181.5 57t-66.5 168q0 124 85 219t208 95q98 0 154.5 -50t56.5 -146q0 -53 -13 -115zM178 308h227q3 18 3 35q0 86 -85 86q-58 0 -90.5 -31t-54.5 -90zM435 585h-85l-129 146h133z
" />
    <glyph glyph-name="eacute" unicode="&#xe9;" 
d="M523 216h-363q0 -69 36 -99.5t107 -30.5q78 0 158 37l-17 -106q-94 -29 -164 -29q-115 0 -181.5 57t-66.5 168q0 124 85 219t208 95q98 0 154.5 -50t56.5 -146q0 -53 -13 -115zM178 308h227q3 18 3 35q0 86 -85 86q-58 0 -90.5 -31t-54.5 -90zM271 585l81 146h133
l-128 -146h-86z" />
    <glyph glyph-name="ecircumflex" unicode="&#xea;" 
d="M523 216h-363q0 -69 36 -99.5t107 -30.5q78 0 158 37l-17 -106q-94 -29 -164 -29q-115 0 -181.5 57t-66.5 168q0 124 85 219t208 95q98 0 154.5 -50t56.5 -146q0 -53 -13 -115zM178 308h227q3 18 3 35q0 86 -85 86q-58 0 -90.5 -31t-54.5 -90zM281 585h-100l129 146h115
l75 -146h-89l-50 93z" />
    <glyph glyph-name="edieresis" unicode="&#xeb;" 
d="M523 216h-363q0 -69 36 -99.5t107 -30.5q78 0 158 37l-17 -106q-94 -29 -164 -29q-115 0 -181.5 57t-66.5 168q0 124 85 219t208 95q98 0 154.5 -50t56.5 -146q0 -53 -13 -115zM178 308h227q3 18 3 35q0 86 -85 86q-58 0 -90.5 -31t-54.5 -90zM310 725l-25 -116h-114
l25 116h114zM518 725l-25 -116h-114l25 116h114z" />
    <glyph glyph-name="igrave" unicode="&#xec;" horiz-adv-x="278" 
d="M21 0l110 515h134l-110 -515h-134zM266 585h-85l-129 146h133z" />
    <glyph glyph-name="iacute" unicode="&#xed;" horiz-adv-x="278" 
d="M21 0l110 515h134l-110 -515h-134zM132 585l81 146h133l-128 -146h-86z" />
    <glyph glyph-name="icircumflex" unicode="&#xee;" horiz-adv-x="278" 
d="M21 0l110 515h134l-110 -515h-134zM142 585h-100l129 146h115l75 -146h-89l-50 93z" />
    <glyph glyph-name="idieresis" unicode="&#xef;" horiz-adv-x="278" 
d="M21 0l110 515h134l-110 -515h-134zM171 725l-25 -116h-114l25 116h114zM379 725l-25 -116h-114l25 116h114z" />
    <glyph glyph-name="eth" unicode="&#xf0;" horiz-adv-x="611" 
d="M340 411q-74 0 -116.5 -60.5t-42.5 -137.5q0 -55 25.5 -88.5t79.5 -32.5q72 0 114 67t42 141q0 48 -23.5 79.5t-78.5 31.5zM512 762l53 -59l-108 -49q125 -131 125 -333q0 -157 -86.5 -245t-220.5 -88q-109 0 -171.5 62.5t-62.5 172.5q0 127 83.5 209.5t199.5 82.5
q64 0 106 -27h2q-40 72 -82 117l-104 -47l-54 60l96 43q-27 21 -66 41l95 60q48 -27 79 -52z" />
    <glyph glyph-name="ntilde" unicode="&#xf1;" horiz-adv-x="611" 
d="M21 0l95 441q11 55 13 74h131l-9 -50h2q67 62 146 62q76 0 122 -44.5t46 -120.5q0 -34 -17 -112l-54 -250h-134l50 243q15 75 15 108q0 32 -20.5 52t-52.5 20q-108 0 -144 -164l-55 -259h-134zM506 731h51q-17 -119 -118 -119q-25 0 -71 20t-64 20q-20 0 -34 -15t-16 -34
h-51q20 121 116 121q29 0 75 -20t58 -20q23 0 35 11t19 36z" />
    <glyph glyph-name="ograve" unicode="&#xf2;" horiz-adv-x="611" 
d="M286 92q49 0 86 34.5t53.5 80.5t16.5 93q0 123 -102 123q-50 0 -87.5 -34t-54.5 -80.5t-17 -95.5q0 -121 105 -121zM346 527q106 0 171 -60.5t65 -165.5q0 -137 -85.5 -225t-221.5 -88q-109 0 -171.5 63t-62.5 172q0 129 87.5 216.5t217.5 87.5zM433 585h-85l-129 146
h133z" />
    <glyph glyph-name="oacute" unicode="&#xf3;" horiz-adv-x="611" 
d="M286 92q49 0 86 34.5t53.5 80.5t16.5 93q0 123 -102 123q-50 0 -87.5 -34t-54.5 -80.5t-17 -95.5q0 -121 105 -121zM346 527q106 0 171 -60.5t65 -165.5q0 -137 -85.5 -225t-221.5 -88q-109 0 -171.5 63t-62.5 172q0 129 87.5 216.5t217.5 87.5zM299 585l81 146h133
l-128 -146h-86z" />
    <glyph glyph-name="ocircumflex" unicode="&#xf4;" horiz-adv-x="611" 
d="M286 92q49 0 86 34.5t53.5 80.5t16.5 93q0 123 -102 123q-50 0 -87.5 -34t-54.5 -80.5t-17 -95.5q0 -121 105 -121zM346 527q106 0 171 -60.5t65 -165.5q0 -137 -85.5 -225t-221.5 -88q-109 0 -171.5 63t-62.5 172q0 129 87.5 216.5t217.5 87.5zM309 585h-100l129 146
h115l75 -146h-89l-50 93z" />
    <glyph glyph-name="otilde" unicode="&#xf5;" horiz-adv-x="611" 
d="M286 92q49 0 86 34.5t53.5 80.5t16.5 93q0 123 -102 123q-50 0 -87.5 -34t-54.5 -80.5t-17 -95.5q0 -121 105 -121zM346 527q106 0 171 -60.5t65 -165.5q0 -137 -85.5 -225t-221.5 -88q-109 0 -171.5 63t-62.5 172q0 129 87.5 216.5t217.5 87.5zM506 731h51
q-17 -119 -118 -119q-25 0 -71 20t-64 20q-20 0 -34 -15t-16 -34h-51q20 121 116 121q29 0 75 -20t58 -20q23 0 35 11t19 36z" />
    <glyph glyph-name="odieresis" unicode="&#xf6;" horiz-adv-x="611" 
d="M286 92q49 0 86 34.5t53.5 80.5t16.5 93q0 123 -102 123q-50 0 -87.5 -34t-54.5 -80.5t-17 -95.5q0 -121 105 -121zM346 527q106 0 171 -60.5t65 -165.5q0 -137 -85.5 -225t-221.5 -88q-109 0 -171.5 63t-62.5 172q0 129 87.5 216.5t217.5 87.5zM338 725l-25 -116h-114
l25 116h114zM546 725l-25 -116h-114l25 116h114z" />
    <glyph glyph-name="divide" unicode="&#xf7;" horiz-adv-x="600" 
d="M569 201h-508v104h508v-104zM315 375q-31 0 -54 23t-23 54t23 54t54 23t54 -22.5t23 -54.5t-23 -54.5t-54 -22.5zM315 131q31 0 54 -22.5t23 -54.5t-23 -54.5t-54 -22.5t-54 23t-23 54t23 54t54 23z" />
    <glyph glyph-name="oslash" unicode="&#xf8;" horiz-adv-x="611" 
d="M428 374l-199 -267q22 -15 57 -15q49 0 86 34.5t53.5 80.5t16.5 93q0 43 -14 74zM192 150l196 263q-17 10 -48 10q-50 0 -87.5 -34t-54.5 -80.5t-17 -95.5q0 -35 11 -63zM517 587l45 -33l-58 -78q78 -60 78 -175q0 -137 -85.5 -225t-221.5 -88q-69 0 -116 25l-68 -91
l-45 33l66 88q-71 63 -71 180q0 129 87.5 216.5t217.5 87.5q63 0 110 -22z" />
    <glyph glyph-name="ugrave" unicode="&#xf9;" horiz-adv-x="611" 
d="M600 515l-95 -441q-11 -55 -13 -74h-131l9 50h-2q-67 -62 -146 -62q-76 0 -122 44.5t-46 120.5q0 34 17 112l54 250h134l-50 -243q-15 -75 -15 -108q0 -32 20.5 -52t52.5 -20q108 0 144 164l55 259h134zM433 585h-85l-129 146h133z" />
    <glyph glyph-name="uacute" unicode="&#xfa;" horiz-adv-x="611" 
d="M600 515l-95 -441q-11 -55 -13 -74h-131l9 50h-2q-67 -62 -146 -62q-76 0 -122 44.5t-46 120.5q0 34 17 112l54 250h134l-50 -243q-15 -75 -15 -108q0 -32 20.5 -52t52.5 -20q108 0 144 164l55 259h134zM299 585l81 146h133l-128 -146h-86z" />
    <glyph glyph-name="ucircumflex" unicode="&#xfb;" horiz-adv-x="611" 
d="M600 515l-95 -441q-11 -55 -13 -74h-131l9 50h-2q-67 -62 -146 -62q-76 0 -122 44.5t-46 120.5q0 34 17 112l54 250h134l-50 -243q-15 -75 -15 -108q0 -32 20.5 -52t52.5 -20q108 0 144 164l55 259h134zM309 585h-100l129 146h115l75 -146h-89l-50 93z" />
    <glyph glyph-name="udieresis" unicode="&#xfc;" horiz-adv-x="611" 
d="M600 515l-95 -441q-11 -55 -13 -74h-131l9 50h-2q-67 -62 -146 -62q-76 0 -122 44.5t-46 120.5q0 34 17 112l54 250h134l-50 -243q-15 -75 -15 -108q0 -32 20.5 -52t52.5 -20q108 0 144 164l55 259h134zM338 725l-25 -116h-114l25 116h114zM546 725l-25 -116h-114l25 116
h114z" />
    <glyph glyph-name="yacute" unicode="&#xfd;" 
d="M66 515h137l48 -383h2l205 383h147l-349 -593q-26 -44 -47 -70.5t-63 -50t-95 -23.5q-49 0 -100 14l30 102q32 -12 59 -12q31 0 57 20t60 73zM271 585l81 146h133l-128 -146h-86z" />
    <glyph glyph-name="thorn" unicode="&#xfe;" horiz-adv-x="611" 
d="M169 80l-59 -290h-134l201 960h134l-63 -291h2q15 25 53.5 46.5t88.5 21.5q93 0 141 -57t48 -152q0 -84 -28.5 -157t-91.5 -123t-148 -50q-114 0 -142 92h-2zM441 313q0 49 -24.5 79.5t-69.5 30.5q-63 0 -102.5 -67t-39.5 -143q0 -54 21 -87.5t67 -33.5q52 0 87.5 40
t48 87t12.5 94z" />
    <glyph glyph-name="ydieresis" unicode="&#xff;" 
d="M66 515h137l48 -383h2l205 383h147l-349 -593q-26 -44 -47 -70.5t-63 -50t-95 -23.5q-49 0 -100 14l30 102q32 -12 59 -12q31 0 57 20t60 73zM310 725l-25 -116h-114l25 116h114zM518 725l-25 -116h-114l25 116h114z" />
    <glyph glyph-name="dotlessi" unicode="&#x131;" horiz-adv-x="278" 
d="M21 0l110 515h134l-110 -515h-134z" />
    <glyph glyph-name="Lslash" unicode="&#x141;" horiz-adv-x="500" 
d="M26 0l51 243l-83 -44l20 92l82 44l75 363h140l-58 -280l189 100l-19 -92l-189 -100l-45 -216h271l-23 -110h-411z" />
    <glyph glyph-name="lslash" unicode="&#x142;" horiz-adv-x="278" 
d="M21 0l61 293l-81 -43l19 92l81 43l76 365h134l-59 -285l81 43l-20 -92l-80 -43l-78 -373h-134z" />
    <glyph glyph-name="OE" unicode="&#x152;" horiz-adv-x="944" 
d="M839 0h-261q-86 0 -137 -3q-15 0 -41 -1.5t-36 -1.5q-135 0 -215 88t-80 223q0 178 110 288.5t297 110.5q54 0 108 -3q108 -3 123 -3h272l-22 -110h-258l-36 -172h233l-22 -110h-234l-41 -196h263zM458 110l100 478q-32 6 -71 6q-121 0 -196.5 -83.5t-75.5 -205.5
q0 -90 48 -145.5t135 -55.5q30 0 60 6z" />
    <glyph glyph-name="oe" unicode="&#x153;" horiz-adv-x="944" 
d="M910 216h-340q-3 -130 126 -130q64 0 145 34l-20 -106q-76 -26 -163 -26q-133 0 -178 96q-31 -49 -88 -72.5t-117 -23.5q-109 0 -171.5 63t-62.5 172q0 128 85.5 216t205.5 88q155 0 198 -96q40 53 82 74.5t107 21.5q96 0 150.5 -50t54.5 -145q0 -56 -14 -116zM181 215
q0 -129 99 -129q74 0 115 69.5t41 150.5q0 54 -24.5 88.5t-69.5 34.5q-52 0 -90.5 -36.5t-54.5 -84t-16 -93.5zM583 308h209q4 26 4 41q0 39 -19.5 62.5t-56.5 23.5q-51 0 -88 -37.5t-49 -89.5z" />
    <glyph glyph-name="Scaron" unicode="&#x160;" 
d="M553 679l-33 -115q-70 36 -145 36q-45 0 -81 -19.5t-36 -60.5q0 -30 24.5 -54.5t59.5 -44t70 -43t59.5 -63.5t24.5 -94q0 -120 -80.5 -176.5t-206.5 -56.5q-92 0 -199 39l36 119q104 -48 171 -48q55 0 94 28t39 81q0 34 -24.5 60t-59.5 44.5t-70 40t-59.5 59t-24.5 88.5
q0 53 21.5 94.5t58.5 66.5t82.5 37.5t97.5 12.5q104 0 181 -31zM572 884l-129 -146h-115l-75 146h89l50 -92l80 92h100z" />
    <glyph glyph-name="scaron" unicode="&#x161;" horiz-adv-x="444" 
d="M442 506l-29 -101q-65 24 -110 24q-36 0 -63 -12t-27 -40q0 -18 18 -35t43.5 -33t51 -35t43.5 -48t18 -64q0 -48 -19.5 -83.5t-54 -54.5t-73.5 -27.5t-85 -8.5q-91 0 -157 31l29 107q72 -40 128 -40q38 0 65 14t27 43q0 23 -18 42t-43.5 34.5t-51 33.5t-43.5 46t-18 64
q0 43 19.5 76t52.5 51.5t71 27.5t80 9q64 0 146 -21zM466 731l-129 -146h-115l-75 146h89l50 -92l80 92h100z" />
    <glyph glyph-name="Ydieresis" unicode="&#x178;" horiz-adv-x="667" 
d="M210 0l61 289l-164 409h148l104 -293l227 293h163l-338 -409l-61 -289h-140zM416 878l-25 -116h-114l25 116h114zM624 878l-25 -116h-114l25 116h114z" />
    <glyph glyph-name="Zcaron" unicode="&#x17d;" 
d="M124 588l24 110h479l-24 -110l-421 -478h318l-23 -110h-490l22 110l420 478h-305zM572 884l-129 -146h-115l-75 146h89l50 -92l80 92h100z" />
    <glyph glyph-name="zcaron" unicode="&#x17e;" horiz-adv-x="500" 
d="M514 515l-22 -104l-315 -307h258l-19 -104h-431l21 104l317 307h-237l23 104h405zM494 731l-129 -146h-115l-75 146h89l50 -92l80 92h100z" />
    <glyph glyph-name="florin" unicode="&#x192;" 
d="M136 326l20 80h117q29 132 46 179q28 68 71 96.5t117 28.5q49 0 108 -16l-31 -98q-20 10 -51 10q-47 0 -66.5 -22.5t-29.5 -70.5l-25 -107h116l-18 -80h-114l-56 -259q-10 -49 -16 -72.5t-17 -61t-20.5 -55t-26.5 -40.5t-36.5 -33.5t-47.5 -18.5t-63 -8q-47 0 -111 19
l31 98q31 -13 55 -13q44 3 65 32.5t35 97.5l66 314h-118z" />
    <glyph glyph-name="circumflex" unicode="&#x2c6;" horiz-adv-x="278" 
d="M142 585h-100l129 146h115l75 -146h-89l-50 93z" />
    <glyph glyph-name="caron" unicode="&#x2c7;" horiz-adv-x="278" 
d="M383 731l-129 -146h-115l-75 146h89l50 -92l80 92h100z" />
    <glyph glyph-name="uni02C9" unicode="&#x2c9;" horiz-adv-x="278" 
d="M53 618l16 80h297l-15 -80h-298z" />
    <glyph glyph-name="breve" unicode="&#x2d8;" horiz-adv-x="278" 
d="M63 723h70q2 -27 14 -43q21 -30 71 -30q49 0 78 25q18 17 32 48h72q-13 -51 -45 -88q-50 -57 -132 -57q-86 0 -126 43q-34 38 -34 102z" />
    <glyph glyph-name="dotaccent" unicode="&#x2d9;" horiz-adv-x="278" 
d="M275 725l-25 -116h-114l25 116h114z" />
    <glyph glyph-name="ring" unicode="&#x2da;" horiz-adv-x="278" 
d="M386 687q0 -42 -31.5 -73t-73.5 -31t-73 31t-31 73t31 73.5t73 31.5q43 0 74 -31t31 -74zM281 738q-21 0 -35.5 -15t-14.5 -36q0 -22 14.5 -36t35.5 -14q22 0 36.5 14t14.5 36t-14.5 36.5t-36.5 14.5z" />
    <glyph glyph-name="ogonek" unicode="&#x2db;" horiz-adv-x="278" 
d="M155 0h68q-132 -79 -132 -122q0 -17 8 -28.5t24 -11.5q35 0 57 38l48 -20q-44 -78 -134 -78q-34 0 -61.5 16t-27.5 51q0 34 34 73q41 46 116 82z" />
    <glyph glyph-name="tilde" unicode="&#x2dc;" horiz-adv-x="278" 
d="M339 731h51q-17 -119 -118 -119q-25 0 -71 20t-64 20q-20 0 -34 -15t-16 -34h-51q20 121 116 121q29 0 75 -20t58 -20q23 0 35 11t19 36z" />
    <glyph glyph-name="hungarumlaut" unicode="&#x2dd;" horiz-adv-x="278" 
d="M115 731h133l-128 -146h-86zM312 731h133l-128 -146h-86z" />
    <glyph glyph-name="uni03A9" unicode="&#x3a9;" horiz-adv-x="707" 
d="M144 95l1 3q-43 50 -62.5 123t-0.5 162q29 137 134 230.5t237 93.5q91 0 150 -48t77.5 -119t1.5 -150q-20 -92 -72 -168t-116 -124v-3h139l-20 -95h-259l15 70q62 35 113.5 109.5t75.5 185.5q11 64 4.5 118.5t-40.5 90t-90 35.5q-82 0 -147.5 -70.5t-88.5 -178.5
q-20 -111 -1 -184t65 -106l-14 -70h-259l20 95h137z" />
    <glyph glyph-name="uni03BC" unicode="&#x3bc;" horiz-adv-x="611" 
d="M127 515h132l-50 -243q-15 -75 -15 -108q0 -32 20.5 -52t52.5 -20q108 0 144 164l55 259h134l-95 -441q-11 -55 -13 -74h-131l9 50h-2q-67 -62 -146 -62q-41 0 -64 34l-48 -232h-134z" />
    <glyph glyph-name="pi" unicode="&#x3c0;" horiz-adv-x="594" 
d="M606 422h-72l-58 -274q-20 -93 -18 -148h-114q-10 29 13 142l60 280h-145q-25 -97 -70.5 -224.5t-84.5 -197.5h-114q42 84 87 209t66 213q-64 0 -102 -10l3 78q52 32 166 32h414z" />
    <glyph glyph-name="endash" unicode="&#x2013;" horiz-adv-x="500" 
d="M498 223h-500l20 92h500z" />
    <glyph glyph-name="emdash" unicode="&#x2014;" horiz-adv-x="1000" 
d="M-2 223l20 92h1000l-20 -92h-1000z" />
    <glyph glyph-name="quoteleft" unicode="&#x2018;" horiz-adv-x="278" 
d="M216 698h121l-102 -250h-151z" />
    <glyph glyph-name="quoteright" unicode="&#x2019;" horiz-adv-x="278" 
d="M94 448l102 250h151l-133 -250h-120z" />
    <glyph glyph-name="quotesinglbase" unicode="&#x201a;" horiz-adv-x="278" 
d="M83 -110h-120l102 250h151z" />
    <glyph glyph-name="quotedblleft" unicode="&#x201c;" horiz-adv-x="500" 
d="M216 698h121l-102 -250h-151zM438 698h121l-102 -250h-151z" />
    <glyph glyph-name="quotedblright" unicode="&#x201d;" horiz-adv-x="500" 
d="M437 448h-121l102 250h151zM215 448h-121l102 250h151z" />
    <glyph glyph-name="quotedblbase" unicode="&#x201e;" horiz-adv-x="500" 
d="M83 -110h-120l102 250h151zM305 -110h-120l102 250h151z" />
    <glyph glyph-name="dagger" unicode="&#x2020;" 
d="M383 435l-90 -435h-124l90 435h-150l22 104h150l33 159h124l-33 -159h153l-22 -104h-153z" />
    <glyph glyph-name="daggerdbl" unicode="&#x2021;" 
d="M324 147l-31 -147h-124l31 147h-154l20 98h154l45 212h-156l20 98h156l30 143h124l-30 -143h155l-20 -98h-155l-44 -212h155l-20 -98h-156z" />
    <glyph glyph-name="bullet" unicode="&#x2022;" horiz-adv-x="500" 
d="M100 349q0 72 51 123t123 51t123.5 -51t51.5 -123t-51.5 -123.5t-123.5 -51.5t-123 51.5t-51 123.5z" />
    <glyph glyph-name="ellipsis" unicode="&#x2026;" horiz-adv-x="1000" 
d="M52 0l29 140h140l-29 -140h-140zM385 0l29 140h140l-29 -140h-140zM718 0l29 140h140l-29 -140h-140z" />
    <glyph glyph-name="perthousand" unicode="&#x2030;" horiz-adv-x="1000" 
d="M184 364q-66 0 -98 29.5t-32 94.5q0 90 45 156t129 66q55 0 90.5 -32.5t35.5 -87.5q0 -59 -15.5 -107.5t-55.5 -83.5t-99 -35zM186 436q28 0 46.5 32t24 64.5t5.5 59.5q0 46 -39 46q-21 0 -37 -17.5t-24 -43t-12 -49.5t-4 -42q0 -50 40 -50zM480 -12q-66 0 -98 29.5
t-32 94.5q0 90 45 156t129 66q55 0 90.5 -32.5t35.5 -87.5q0 -59 -15.5 -107.5t-55.5 -83.5t-99 -35zM482 60q28 0 46.5 32t24 64.5t5.5 59.5q0 46 -39 46q-21 0 -37 -17.5t-24 -43t-12 -49.5t-4 -42q0 -50 40 -50zM815 -12q-66 0 -98 29.5t-32 94.5q0 90 45 156t129 66
q55 0 90.5 -32.5t35.5 -87.5q0 -59 -15.5 -107.5t-55.5 -83.5t-99 -35zM817 60q28 0 46.5 32t24 64.5t5.5 59.5q0 46 -39 46q-21 0 -37 -17.5t-24 -43t-12 -49.5t-4 -42q0 -50 40 -50zM39 -22l542 742h85l-542 -742h-85z" />
    <glyph glyph-name="guilsinglleft" unicode="&#x2039;" horiz-adv-x="389" 
d="M46 269l150 205h140l-158 -205l70 -205h-115z" />
    <glyph glyph-name="guilsinglright" unicode="&#x203a;" horiz-adv-x="389" 
d="M343 269l-150 -205h-140l158 205l-70 205h115z" />
    <glyph glyph-name="fraction" unicode="&#x2044;" horiz-adv-x="167" 
d="M252 720h85l-420 -742h-85z" />
    <glyph glyph-name="Euro" unicode="&#x20ac;" 
d="M688 683l-48 -104q-44 24 -113 24q-76 0 -139.5 -42t-100.5 -112h296l-28 -61h-297q-11 -34 -16 -78h279l-27 -61h-249q8 -71 54.5 -111t119.5 -40q69 0 123 22l-17 -112q-61 -20 -149 -20q-127 0 -203.5 67.5t-77.5 193.5h-99l28 61h75q7 46 16 78h-90l28 61h85
q52 117 158 189t232 72q91 0 160 -27z" />
    <glyph glyph-name="afii61289" unicode="&#x2113;" horiz-adv-x="506" 
d="M424 177l38 -49q-99 -136 -232 -136q-84 0 -117 46.5t-25 120.5q2 8 2 11q-9 -6 -29.5 -20t-31.5 -21l-17 63q83 58 96 69l54 254q27 126 89 188.5t138 62.5q68 0 92 -48.5t8 -125.5q-33 -158 -272 -349l-8 -41q-11 -57 8 -87t59 -30q72 0 148 92zM276 518l-36 -167
q153 139 175 244q18 87 -39 87q-27 0 -54.5 -38.5t-45.5 -125.5z" />
    <glyph glyph-name="trademark" unicode="&#x2122;" horiz-adv-x="1000" 
d="M489 282v416h145l99 -260l98 260h145v-416h-98v294h-2l-106 -294h-75l-106 294h-2v-294h-98zM189 282v336h-117v80h338v-80h-117v-336h-104z" />
    <glyph glyph-name="Omega" unicode="&#x2126;" horiz-adv-x="707" 
d="M144 95l1 3q-43 50 -62.5 123t-0.5 162q29 137 134 230.5t237 93.5q91 0 150 -48t77.5 -119t1.5 -150q-20 -92 -72 -168t-116 -124v-3h139l-20 -95h-259l15 70q62 35 113.5 109.5t75.5 185.5q11 64 4.5 118.5t-40.5 90t-90 35.5q-82 0 -147.5 -70.5t-88.5 -178.5
q-20 -111 -1 -184t65 -106l-14 -70h-259l20 95h137z" />
    <glyph glyph-name="estimated" unicode="&#x212e;" horiz-adv-x="968" 
d="M934 339h-649q-6 0 -6 -4v-197q0 -13 9 -22q104 -107 245 -107q76 0 143 32t116 87h58q-55 -64 -138.5 -101.5t-179.5 -37.5q-166 0 -283 105.5t-117 254.5t117 255t283 106q167 0 284.5 -106t117.5 -255v-10zM787 365v197q0 12 -10 24q-104 102 -244 102t-244 -106
q-10 -9 -10 -24v-193q0 -7 6 -7h497q5 0 5 7z" />
    <glyph glyph-name="partialdiff" unicode="&#x2202;" horiz-adv-x="567" 
d="M186 641l-15 87q85 57 191 57q114 0 171.5 -99.5t18.5 -279.5q-40 -187 -137 -300.5t-227 -113.5q-50 0 -86 21.5t-52 55.5t-21.5 75.5t5.5 82.5q25 117 102 188.5t168 71.5q55 0 88 -27t44 -55h1q2 8 8 35q22 103 -11 175.5t-107 72.5q-72 0 -141 -47zM220 90h1
q55 0 105.5 65t77.5 150q-3 31 -28.5 59.5t-69.5 28.5q-52 0 -97 -50t-60 -119q-12 -57 7.5 -95.5t63.5 -38.5z" />
    <glyph glyph-name="Delta" unicode="&#x2206;" horiz-adv-x="653" 
d="M-25 0l15 70l368 642h139l89 -641l-15 -71h-596zM115 95h351l-50 308q-2 25 -10 91t-9 89h-4q-8 -19 -42.5 -81t-45.5 -84z" />
    <glyph glyph-name="product" unicode="&#x220f;" horiz-adv-x="809" 
d="M784 589h-103v-685h-115v685h-228v-685h-116v685h-102v107h664v-107z" />
    <glyph glyph-name="summation" unicode="&#x2211;" horiz-adv-x="648" 
d="M630 -96h-512v75l245 321l-235 314v82h486v-100h-329v-3l210 -274l-232 -304v-3h367v-108z" />
    <glyph glyph-name="minus" unicode="&#x2212;" horiz-adv-x="600" 
d="M569 201h-508v104h508v-104z" />
    <glyph glyph-name="uni2215" unicode="&#x2215;" horiz-adv-x="167" 
d="M252 720h85l-420 -742h-85z" />
    <glyph glyph-name="uni2219" unicode="&#x2219;" horiz-adv-x="278" 
d="M157 207q-31 0 -54 23t-23 54t23 54t54 23t54 -22.5t23 -54.5t-23 -54.5t-54 -22.5z" />
    <glyph glyph-name="radical" unicode="&#x221a;" horiz-adv-x="683" 
d="M692 833l-224 -974h-94l-150 441l-74 -29l-20 66l164 65l107 -326q4 -18 11.5 -49t8.5 -34l1 -1q2 10 7 41t8 47l173 753h82z" />
    <glyph glyph-name="infinity" unicode="&#x221e;" horiz-adv-x="816" 
d="M769 288v-1q0 -76 -47 -123t-112 -47q-45 0 -87 26t-91 88q-46 -56 -88 -85t-97 -29q-64 0 -110 47t-46 119q0 73 46.5 120.5t117.5 47.5q52 0 94 -29t86 -83q25 29 36 40t36.5 32.5t51.5 30.5t57 9q67 -1 110 -45.5t43 -117.5zM255 182h1q27 0 55.5 18t42 32t42.5 48
q-30 39 -43.5 55t-42 34t-59.5 18q-43 0 -68 -30t-25 -75q0 -42 27.5 -71t69.5 -29zM610 387h-1q-18 0 -34.5 -6t-33.5 -20t-26 -22.5t-26.5 -29t-20.5 -23.5q49 -59 78.5 -81.5t66.5 -22.5q40 0 64.5 31.5t24.5 68.5q0 46 -25.5 75.5t-66.5 29.5z" />
    <glyph glyph-name="integral" unicode="&#x222b;" horiz-adv-x="483" 
d="M464 846l-13 -80q-16 9 -36 9q-32 0 -49 -25q-29 -37 -29 -169q0 -79 7.5 -236t7.5 -247q0 -133 -38 -200q-36 -68 -122 -68q-43 0 -75 16l15 84q28 -11 44 -11q28 0 44 20q28 39 28 158q0 90 -7 251t-7 244q0 86 13.5 137.5t44.5 84.5q41 44 112 44q38 0 60 -12z" />
    <glyph glyph-name="approxequal" unicode="&#x2248;" horiz-adv-x="591" 
d="M509 446l42 -38q-52 -102 -133 -102q-45 0 -113 40q-52 34 -87 34q-21 0 -39.5 -12t-28 -23.5t-26.5 -36.5l-43 38q23 45 61 73t82 28q14 0 26.5 -2t25.5 -7.5t19.5 -8.5t20 -10.5t15.5 -8.5q3 -2 12 -7.5t12 -7t10.5 -6t11 -5.5t9.5 -4t10.5 -3.5t10.5 -1.5t12 -1
q27 0 47 17.5t43 54.5zM509 263l42 -38q-52 -101 -134 -101q-43 0 -112 40q-54 34 -87 34q-21 0 -39.5 -12t-28 -24t-26.5 -37l-43 39q23 45 61 72.5t82 27.5q12 0 23.5 -2t20 -4t19 -7t15.5 -7.5t16 -8.5t13 -7q5 -3 17 -10.5t18 -10.5t16 -7.5t19 -6.5t18 -2
q27 0 46.5 17.5t43.5 54.5z" />
    <glyph glyph-name="notequal" unicode="&#x2260;" horiz-adv-x="609" 
d="M462 509l-40 -90h139v-68h-165l-60 -137h225v-68h-252l-50 -114l-54 22l41 92h-138v68h164l60 137h-224v68h250l50 112z" />
    <glyph glyph-name="lessequal" unicode="&#x2264;" horiz-adv-x="628" 
d="M577 98l-445 223v74l445 222v-80l-376 -178v-2l376 -178v-81zM581 -9h-453v69h453v-69z" />
    <glyph glyph-name="greaterequal" unicode="&#x2265;" horiz-adv-x="627" 
d="M134 617l445 -223v-73l-445 -223v81l375 178v2l-375 178v80zM579 -9h-450v69h450v-69z" />
    <glyph glyph-name="lozenge" unicode="&#x25ca;" horiz-adv-x="683" 
d="M634 347l-199 -395h-93l-193 395l198 396h93zM530 345l-118 245q-14 35 -19 58h-3q-6 -27 -19 -58l-119 -240l120 -249q12 -31 17 -55h4q6 27 17 54z" />
    </font>
</defs>
</svg>
